<mxfile host="app.diagrams.net" agent="Mozilla/5.0 (X11; Ubuntu; Linux x86_64; rv:128.0) Gecko/20100101 Firefox/128.0" version="24.7.6">
  <diagram name="Page-1" id="alDKycs5oU3pcxEAZStF">
    <mxGraphModel dx="3120" dy="781" grid="1" gridSize="10" guides="1" tooltips="1" connect="1" arrows="1" fold="1" page="1" pageScale="1" pageWidth="850" pageHeight="1100" math="0" shadow="0">
      <root>
        <mxCell id="0" />
        <mxCell id="1" parent="0" />
        <mxCell id="2lmS-5YsYihyagzqlJ5x-39" value="" style="rounded=0;whiteSpace=wrap;html=1;strokeColor=#FF3333;" parent="1" vertex="1">
          <mxGeometry x="-1487" y="130" width="1250" height="1280" as="geometry" />
        </mxCell>
        <mxCell id="XD-aGYf0FBWwHXYNJBPc-10" value="" style="rounded=0;whiteSpace=wrap;html=1;strokeColor=#61D5FF;" parent="1" vertex="1">
          <mxGeometry x="-1260" y="1285" width="870" height="70" as="geometry" />
        </mxCell>
        <mxCell id="2lmS-5YsYihyagzqlJ5x-24" value="" style="rounded=0;whiteSpace=wrap;html=1;strokeColor=#61D5FF;fillColor=#61D5FF;" parent="1" vertex="1">
          <mxGeometry x="-498" y="742" width="120" height="120" as="geometry" />
        </mxCell>
        <mxCell id="2lmS-5YsYihyagzqlJ5x-23" value="" style="rounded=0;whiteSpace=wrap;html=1;strokeColor=#61D5FF;fillColor=#61D5FF;" parent="1" vertex="1">
          <mxGeometry x="-1330" y="742" width="120" height="120" as="geometry" />
        </mxCell>
        <mxCell id="1rtqqvMdxupV1CVTJnT_-19" style="edgeStyle=none;rounded=0;orthogonalLoop=1;jettySize=auto;html=1;entryX=0.5;entryY=0;entryDx=0;entryDy=0;entryPerimeter=0;shadow=0;strokeColor=default;strokeWidth=2;align=center;verticalAlign=middle;fontFamily=Helvetica;fontSize=11;fontColor=default;labelBackgroundColor=default;startArrow=classic;endArrow=classic;fillColor=#515151;" parent="1" edge="1">
          <mxGeometry relative="1" as="geometry">
            <mxPoint x="-643" y="819" as="sourcePoint" />
            <mxPoint x="-643" y="819" as="targetPoint" />
          </mxGeometry>
        </mxCell>
        <mxCell id="1rtqqvMdxupV1CVTJnT_-27" value="&lt;div&gt;&lt;b&gt;&lt;font style=&quot;font-size: 36px;&quot;&gt;MNRT OPERATION CONTROL ROOM&lt;br&gt;&lt;/font&gt;&lt;/b&gt;&lt;/div&gt;&lt;div&gt;&lt;b&gt;&lt;font style=&quot;font-size: 24px;&quot;&gt;CONNECTIVITY, DATA FLOW AND VISUALIZATION MODEL&lt;font&gt;&lt;br&gt;&lt;/font&gt;&lt;/font&gt;&lt;/b&gt;&lt;/div&gt;&lt;div&gt;&lt;/div&gt;" style="text;html=1;align=center;verticalAlign=middle;whiteSpace=wrap;rounded=0;fontFamily=Helvetica;fontSize=11;fontColor=default;labelBackgroundColor=default;" parent="1" vertex="1">
          <mxGeometry x="-1535" y="50" width="1270" height="60" as="geometry" />
        </mxCell>
        <mxCell id="4XTPGP9FqWyqA6gIsmBm-3" value="&lt;font style=&quot;font-size: 18px;&quot;&gt;&lt;b&gt;TCGs Operation Control Center&lt;br&gt;&lt;/b&gt;&lt;/font&gt;" style="text;html=1;align=center;verticalAlign=middle;whiteSpace=wrap;rounded=0;fontFamily=Helvetica;fontSize=12;fontColor=default;" parent="1" vertex="1">
          <mxGeometry x="-1371" y="706" width="207" height="30" as="geometry" />
        </mxCell>
        <mxCell id="2lmS-5YsYihyagzqlJ5x-4" value="" style="shape=image;imageAspect=0;aspect=fixed;verticalLabelPosition=bottom;verticalAlign=top;image=data:image/jpeg,/9j/4AAQSkZJRgABAQAAAQABAAD/2wBDAAgGBgcGBQgHBwcJCQgKDBQNDAsLDBkSEw8UHRofHh0aHBwgJC4nICIsIxwcKDcpLDAxNDQ0Hyc5PTgyPC4zNDL/2wBDAQkJCQwLDBgNDRgyIRwhMjIyMjIyMjIyMjIyMjIyMjIyMjIyMjIyMjIyMjIyMjIyMjIyMjIyMjIyMjIyMjIyMjL/wgARCADIAMgDASIAAhEBAxEB/8QAGgABAQADAQEAAAAAAAAAAAAAAAUCBAYDAf/EABQBAQAAAAAAAAAAAAAAAAAAAAD/2gAMAwEAAhADEAAAAr4AAAAAAAAAAAAACXmUU4UU4UUTIspwopwop2uWUTaKKcKKcKKXUAAJ1GdRAAJ+OWJSAAmU5hnQn0AACdRnUQACV6fPoABp5fcz2AA1drxPHc1tkAA86s2kAATqM6iE/mTtnJ9UaOOWJSAAmU5hnQn7xk5PVO2T6BOozqIAacQp7EHA+TquuaXTxepJ/wBp/TXe3MnQOMonRaVPIlfafmcS3R69DBwLNTlczp2mPLke94M+A3dLP3NWnMG55Vdc0fGv5E1WwNL7QwNf22oYNoz0s8AfTrW+HIPQmgbulumltatQ0Pf3Gfl91zYa43NX2+mj67P0l7ulumkBvaNI6tyAs/LOJwT78G7pZmG9lPKWzE2y4sCOsCPp9JxZ7+eiG7npGAHTc13hJWABKldUOH3qnuc7vQ+qOc3Zd86AADlOr58j1YfVEP3ldgctvVKxKqgABq6el0ZzXr8tnJX5144fqpPTHqABKq+RwvVyOkOTp+V8gb+p0Jq7XOdGAAAAAAAAAAAAAAAAAAAAAAAAAAAf/9oADAMBAAIAAwAAACHzzzzzzzzzzzzzzjDDDDDDDDDzzxTzyjzzzzzxTzwgADgABCgABzzxTDSjzzzjDRTzhSgiTDDSAhxDyQAgBywDxgAATAgBQQjiCgxQAAyggBBDzzgAgAjzxyhQzzyhwDxzzwSwxTzzwQyxTzzzzzzzzzzzzzzzzzzzzzzzzzzz/9oADAMBAAIAAwAAABDzzzzzzzzzzzzzzzzzDzzjTzzzzzzzwDzzxTzzzzzTzyjzyjzzzTzzzzADzzxTTzzzDCxwjDDBgxjDCgDABiQjBBSgDxQAAADgCgAABTCwASjTzzjDQATzyzjADzyxjCzzzySQhjzzggyTTzzzzzzzzzzzzzzzzzzzzzzzzzzz/8QAFBEBAAAAAAAAAAAAAAAAAAAAcP/aAAgBAgEBPwAp/8QAFBEBAAAAAAAAAAAAAAAAAAAAcP/aAAgBAwEBPwAp/8QAQxAAAAQEAAgJCgUEAwEAAAAAAQIDBAAFERITFBUgITFRkxAiMjVBVFWSsRYjUlNxgYKDkdEGM2FiwSQ0NmByofBz/9oACAEBAAE/Av8ATZiUy0xZoYVRMp764M1OiMkF6683sZIL115vYyQXrrzexkgvXXm9jJBeuvN7ExY4oxUXI7diYtOUp+sEbi9mTspnLggJ2UAh6awjJBeuvN7GSC9deb2MkF6683sZIL115vYyQXrrzewduLKZNClcuDgpfUDnrqCJcxxtimud27Axq8lT9YyQXrrzexkgvXXm9jJBeuvN7GSC9deb2MkF6683sS4pkpg9QwqihSWUvNXozXfPMv8Aj8M6d80LfD4hDDnSYfL8M5/zow+Z4RJOaEfi8RzmnPMw+DwzXfPMv+Pwzp3zQt8PiEMOdJh8vwzn/OjD5nhEk5oR+LxHOac8zD4PDNmSxW8zYrHrYW+tA/SMuMtp+4MZcZbT9wYy4y2n7gxlxltP3BjLjLafuDEzmjZzL1EU77zUpxf1hN6kymb3DXceylAr0RlxltP3BjLjLafuDGXGW0/cGMuMtp+4MZcZbT9wYUepPZmzwN3EvrUKdESyaNm0vTRUvA5a14v6xlxltP3BjLjLafuDGXGW0/cGMuMtp+4MZcZbT9wYlqxXEyfLErYaylQ/TNmBlxfNG6K4pYS6ogFdUYg97TPuwjEHvaZ92EYg97TPuwjEHvaZ92EYg97TPuwh8k+Zszr5ROa2miwNsBjbuYOkyPDJFTtoAFrrCMQe9pn3YRiD3tM+7CMQe9pn3YRiD3tM+7CMQe9pn3YQONtJg2TO8MqVS6oCWmoIYpPnjMi+UTlurosDbGIPe0z7sIxB72mfdhGIPe0z7sIxB72mfdhGIPe0z7sIl5lweu0FlxVwdtBEKa813zzL/j8M6d80LfD4hDDnSYfL8M5/zow+Z4RJOaEfi8RzmnPMw+DwzXfPMv8Aj8OCazMGCYAULljag2QpMHaprjOFPcNIZTpy3OAKmFVPpA2uE1CqplUINSmCoRO+aFvh8QhhzpMPl+Gc/wCdGHzPCJJzQj8XiMKKFSTMocaFKFRh7OnLg44I4pJ9AF1wlMHaJriuFPeNYlUyB+kIGCixeUG3gac8zD4PDNmCpEZqwUUNaQL6iPsjKrHrJInphGbKAPQAAH04ZO6TQlJBXUAhbxKWsTZ+1Xlqqaa5THGlAD2w3dINpo+wygEuspX2RlVj1kkZVY9ZJGVWPWSRlVj1kkZVY9ZJDh0g5mjHAqAe2+tPZEpftUZYkmouUpwrUB9sTh0mvKTCgoBy3gU1OGRGEJqmAdICA/SMqseskiXqkWmr9RM1xRsoIezhmT7EGuEtuMI0KEeUbv1aH0H7wefLqctu2NTaQfvGWT9UZ7uFKzlMypUwK6TpUAHQYIyS99UG8L94CUPBH8sofMLDZmiizTQEpTgXaHTGKt/UJdwIM3RMNTJEEdolgyDUhRMZFIChpEbQidnbndkFsKYls02cEmMgR6IuBJZYPLgqDU5QMVFISjpAbQgrdEo1KkQB2gWMVb+oS7gQ5ZpLM1EAKVMDdIB0wMoeAP5ZR+YWMkvfVBvC/eCVkyZVTJgZ0pWgCOgpYyyfqjPdwSfLp8hu2LXYQfvHlG79Wh9B+8S19j7XCW2mAaCETtHCytTaTjZks4zkyA6lkzE4ZS7EigtTqGKktoAQHkjthdd83XOkdytcUafmDGPO+tLbwYM8dGKJTOVhAdYCccwrx0UoFK5WAA1ABxjHnfWlt4MILvnC5EiOVrjDT8wYmzsVFAakUMZJHRUR5Q7eGZ8V0VENSJCp5kkRwUrT2n40KEBVI6Y6jBSDFEhxKOsBpwoqCiuRQNZTAMTFMEpgsAckRuD2Dp4QOi+YA5Uai4cJUIcAOIDTbHmOxlt4b7Rgk77ciq1pX84Yua4EFslGwYjS7DjFiOGwOR1MJStuGGLmuBw2SjYMBpdhxjBJ32ZFVrSv5wx5jsZbeG+0CdFiwFym1Fu4VqQgCcRGm3hlyYKTBEB5IDcPsDTCygrLHUHWYwjwlKJzgUNYjSEyAkkRMNRQpCihEUxUUMBShrEYm6eDmStOSfjh78x75xqzX2kwY/DwNGgu017OWmW4A2wi4WbGEyKgkEdkZVfdZPEumDpd4RBU4qpqcUxRhdpYGCTauREqg1NQaCEYH+qvxJ5grdWmtYbtLwwSjVyAmUChqDQAiYzF0i8OgkcUk0+KUoRlV91k8LOFnJgMsoJxDbDtoLRNC/lqFuENnAy821eL7CYMPizJQmCkyTEeSTjj7oTUIsmB0zAYo6hCJhMTv1NIiVMOSSH/AJ6XsnH7cEb3ZiXnZSuTpSOCge/RwSZQyJXiheUVGoRlRI2k7FuJukbIym37Pb9yBm1pRBu3SQMOi8hNMY+662v3hjH3XW1+8MY+662v3hgJtcUAcN0lzBovOTTGU2/Z7fuRlRIukjFuBugbInChlis1DcoyNR4FfNSlAnSqcVB92gMxh5mXPXG0uCD3xL5idgpoETJjyiR5OM/WL/UPtD6WJt5KqmkJzWmwnGzJZxnJkR1LEMTglzhBDDlcX2Kkt4kWyb03n/UNJfKnprUl3F/omp9o8nGfrF/qH2jycZ+sX+ofaPJxn6xf6h9o8nGfrF/qH2jycZ+sX+ofaHcvlTI1qq7i/wBEtPtFsm9N5/1ExcIL4Are+xIlvH4JpxXQIhqRIVPMYyxNxJUk1ROW42E4seTjP1i/1D7cChAVSOmOowUgxRIcSjrAacKKgorEUDWUwDDxleosu3OmqlUTUKbSUPZwyy7Kbe3XfnTO7Kbi7Xfws2diiLhydNJKoHoY2kweyFlBWWOoOsxhHhIUTnKQNYjQITICSRUw1FCmY/kaTtQVUz4NQdewYU/D7wnJwZ/YMEZOVFxQBI2EDWGyMguCkFRZRNMhQqI64Fds2SOm1uOc4WmVNo0foESBki4SWUWTKfSABWHlmOrYMAAgHEAAIkCd8zA3oFEf4/nOn6dkzE3plAf4hnZjqOEABIJwAQGJ+yRbponRTKTSIDSAXbOkiJurkzkC0qpQro/UIyC4MQqiKiahDBUB1Qdk5I4BAUjYQdQbYT/D7w/KwZPaMMJGk0UBVQ+EUDVsDPbf5G8/4B/ETpTBypX91C8EmDF5LhR/cf8A99IEajWPw0n/AHCnsLnfiVPS3U9pYAaDUInIYxJsKH7T/wDvrwSVTCSpL9tSw5/yRn/8x8Bz3MxaNRoqqF3ohpGMrOHH9kyOb959AQiMyCbODEKkZxaF5eimiHzzGUAQfILNuNW4oVCDsPNGVQXTWIUKjTQIe6HX9L+HbenBAX68H4fTslt3pnEf4zvxAnfLbvQOA/xwNv6r8O29OCEv0gjDzRVV100SGCoV0iPuhi8xdAUGKCznTW4wUCFhmRpu3MYqRXFo2F6KaYys4b/3rI5f3k0hDaYtHQ0SVC70R0Dms27w07FRwjXSN5jF0e7gZJzAJ4ZRQhtIjeamikLpGUwdqltDcYOgwbIaNHYTg4GQokYRA/F4olh42B20OgI0u6dkBIHuFtoS307obIFbNiIl1FCmc5QK5bHRNqMEDIHuFtoS307tENGxWjQiAabQ17YdNXQzggFQqkUQAnF4oFhBI6d9yl1TcUOgobIeJvxnpVEyGoAhYaminA8bvCzwFEEKaQtMUuj3/wCnf//EACkQAQABAgMIAwEBAQEAAAAAAAERACExUfAQIEFhobHB0XGBkfFg4TD/2gAIAQEAAT8h/wAaYjcsi0ita9VrXqta9VrXqta9UtswEpcGXOsKUS3E7VrXqta9VrXqta9VrXqsKUS3B70t8yFmyMuVa16rWvVa16rWvVa16p2G5Zl0u70+/wBWo597Xcu/V0+79Pv9Wo597Xcu/V0+72sRJJjDeMMMMMZVWBZgGmqAxLgv77xhhhhjXIYtxW9qR2wA3FPneMMMMMtUiSDBG6eDMUwJrTnmtOea055rTnmtOeaFeRpMg80bAfhoRWnPNac81pzzWnPNac80bCfhoTSjzNohHitOea055rTnmtOea055o+mY5gTu9Pv9Wo597Xcu/V0+79PswZYmwGbT+WyUH0VxWPEj4agoImZsq1HPva7l2VTcETlQtxOIXy0NlslD9NCiwpgMzZ0+7lyDlFP6NYGnxSD3XaJYIfv3XPtZFtfqnJH/AHvO7u/4pyTXk6oi9pTwQ/frbgefFJPcK/p0WIecbVq3PMJ5/mzpB5WmRT+991ZuhE5+7ZNggIIFxbHWhEfiTKxdhCdvxAtGe2REFQCDLMTLlsOlyCJkzoz2wIkoOX4AHYQci8ABwNJAgOJc67BFuqU1nrN1r+991J52iTsdL1tPYTy/amgSofrHou4zuhKSdQpEYcdhrEtZ4Yyo8+U7uNac80CBoRCfu4KBoBAftac80+fCcHnjRiEnMeOs9gKwXWmdxMCXqu5NEhV/eHQKxwe/hKMeHI5m3BGT9NesMo77ZMIFLgsx/tA2CqX1pkOD+VljGxXLCuvVcZ4Vf4sbEcsKtrjAcH8pCw1SKiBS4rsP5t9yLx2rEOT9u015MPlrDB5+AoxBzwFG7hVzhPedzmlflUdk2LckJOa5RgIhViV/XqzScZtGNNAJJA64EfFR5TeajCkgFkI9JkjKaTk8DFs6/r0YCIFYFXZEmc1jZzaPyr0O5x3VcoT3ijGHPEVdHVgsc292oj3RJ0edz0Vy542KfCmiblLpuvYy/taF7qDjZYDyZrR3mtHea0d5qDjYYDzZrQvdDouzMP7TjyJoi67PR3P+rcinZBerxV1dXCzzL2dlYFIRmMODgHCdxndTUk6hSIw2Sjoy5gWv4XrTQgEyBTeVq1atWKMImRIU/hetX7LmAaBUC60hN1YEvVdwFIjmCuBiPCNtbHB7+Eo14cvk24JyfppJfhE4y+LaVPiD849J3iJcyfnDpG1Y5ghEvbFWIen7dosyb5GsMVn4DcQ5e2ynipZQff1KskxOcXFyxofrkpQHIKmc+XAWJzOdADSLzFpe5VpwUEgY35tLDaV2q04KCQsUBdYvE2t2aiEvFicDlZlJxclKR5JV1Gozg4meFQygfn6FIcvbYTzv6vlXEN4H2+p2BmEv1aiIrqy1eUyuq+N60Tg3RPNISQjJQZJD922OYZH0+o/8Cqos/wAAwrBmuH8TrQsAjYoQDpUw4ATNh6X4Vxk2ULNVXeGT+YD3dkDDQu29hPQu+y1xIXzIOxXGX5QswUzOLUTbdLcWlBFgwQkPWsOeY6TrQpt/wHHddiMg8Wl+RGwHMI1/hh+iKXTAmGeJVcBXVsy4ZVDqi2YXKXKUuBH5j0pV5ujxzd514hTlk0OFpcDox6U4sbmY3a4/uvJnwzpVsWYI4EU0mIVvjl+2diohlXi8v2Z/x3//xAAoEAEAAQMCBAcBAQEAAAAAAAABEQAhMUFRECBhcYGRobHB8PHRMGD/2gAIAQEAAT8Q/wCNkGQC8Vy5k1HLX5Kv5Kv5Kv5Kv5KrizvxkZAOFrV0UwsjIRMjEZa/JV/JV/JV/JV/JVEs0iyEAAzK84Kxix4YGBTga1+Sr+Sr+Sr+Sr+SrMkgM8wsZdAwf5pev51p6Wp6vmX2O7/NL1/OtPS1PV8y+x3csMOXpkAsdUr6d8V9O+K+nfFfTvivp3xSe8icy102GnpvlOTaMYV9O+K+nfFfTvivp3xX074prTJIzrM5U+uInENcNhX074r6d8V9O+K+nfFfTviiVcrDZCz1Hl0EbFiLPZM681SpUqVGAaub0MsasaVbhCHbrlIunXPNUqVKlQ5QxHLphZuHTFMg8Dchkmbsa81SpUqVNU+wYqx3DOn+aXr+daelqer5l9ju50guSuOMkXibBqzs1NimfDtAHlS6yhEbd7z0VO2aJWU+oSV6/nWnpanq6Qn2n0BLQ7CpGbc7z0EO+aghTL37SD5UMzTVjE2k2TR7nD7Hdy6KXJSIT4oeNCoEz1fyl1Y9dMBxC4IyYdp4tFrDJMwV02Fret3cyY7Q86/Yf5X7D/K/Yf5X7D/K/Yf5TVDr9xInvD5U+ZZJmQtNkfGn0HkwbXxOJ+Uj3UXFBFRsdX8rSE8KDGPETiIDIYiQWUaAu9u9XaO83Ja9ZibMHBiBUJMyoDMIy3E6RVorsBjOphsdiphKYqxRmcq+Fq+4fFQN4kZBBKm1KwCCCJVYsBRYAgBv+ExHpwc4yErG7JiaFgFEUSIxcSpG8QMkhhDavuHxUtgMNUKxEwh4WoLsgRHUSWO5wtRTACkIKzDZsD1mmLzchp1iYuy1do4wZxyYAZWyDtfvXqQL0LkjKBIXBNe/rqRAgYR0eDq4MWbMHJs72mxSluYR2GxITo8JSojNJWRGCO3IAAxCRAAQANOEoX9cBuWwJXoUZuDsmzF1SHjFngDJRAGVpghCJhkvJPEoTyhVPXpPA+9dL8RJD6nGZeEjVBj0qAFl5hEg6RDw4CiIwmtGUa7jLZb9bTbQUKQVgpJrOdBiy826lIs6tZbHXZ8q+VHuLNNS+qaynXcqczxos3Xm3RpUAjDSwoCedbJZpab6GlllzwhTvFwCydIh41KfdLRR+eMV4nukHq0FMdhQHtUtNxQD+9NahjWEwASchal4I6QvV8rwEC5iQIdyLnUDWrZLurkw+VfgP5TjMR11SEJIL9hq3P4QmJWKZd968gCys+0oZH0ADTXJk7bUKmA4RCEpLJftFfgP5V8l3VyYPOo6JNEMO5AL1U04XBZC7VTqed5IRSZMBA0SR3FIPumlSaZQ71DzGmkVJtfgvLz6pLk3ZvxF5Yz4ATYAQSRhzT9PwRumJV+MoSUcUBaYHJZs2SCrilDTIr8ZQ+t5UbJiFyiJkAJSFgxw26TahEnRZnIFFNolV49iVPGZQx1DzGus8As6XpQohYBe5GKBKuCS96yMlEI5GnXYMJluk2Ld+Gru+xDwwfB5goUKFChdBI8wuB4s8NU6SJSYbLFm3aibUQBq0IxKJhCvfkk6d5ATKyC9xChTPc0D71FeJ7JD6nGY+yWqD8VIHNMLJaAE5JtxKEk1NuPjBzASSYvl+EHEzIIaKCUoYyxapSrpaKPzxghEt0g9WgljtKA9uRZNwd/JIp1R8JqCjikojsF6YnnQKYRsrGXel0yY7SuRYxNRq/L1kakLKpzGasySCMUHf0KgCopAYIOxNS4SeJocxjwTe8DTOXZGURT5z4VZukGaGXb1KhNOVrARYWEnfFDQkx2kWws4mryepVMp2VzJtUNHCyo8EvS6Tg7+CVRor4T/AIPrdgXUQz6OCDEEa7S9gpHZZHValxQT9GnNhzRHt8ijXBkNExUXBGUvaHsXCWrJdBLH+AFF+pJoySDJhe8U/b+LD7NN5bIHSCS4b97tOF6VLC4xNyycUVn4nnQgxCUxNbAAN/kJwnWCU7hHufNKC5p2GfceEsaK2oIFmwnnUg1SRzFG62umCwTFiwXaSmiwmkEt036lyj6exZY9dC/Vg1YJQgsNp5VutgW4EhE2GSDaawQVGR8UYgQQ7Jm3em5LASVoiXMOnSZpi4ThOrIJDEIvJfWoogxEyhI2kLbTWCpmRHc9mjKDwULz4ir48yOH4yV56kIPhWCpiBDd9mkyUBiJSkbKttqeqEYxqyRgTKby20onQ1ElaAFjLr1iaXqtJeQIIN0zd6UgkJJQzmhBZCAibjJDtH/Hf//Z;" parent="1" vertex="1">
          <mxGeometry x="-1324" y="749" width="110" height="110" as="geometry" />
        </mxCell>
        <mxCell id="2lmS-5YsYihyagzqlJ5x-6" value="&lt;h1 align=&quot;center&quot; style=&quot;margin-top: 0px;&quot;&gt;ECOLOGY&lt;/h1&gt;" style="text;html=1;whiteSpace=wrap;overflow=hidden;rounded=0; align=center;align=right;" parent="1" vertex="1">
          <mxGeometry x="-1351" y="990" width="151" height="83" as="geometry" />
        </mxCell>
        <mxCell id="2lmS-5YsYihyagzqlJ5x-9" value="" style="endArrow=classic;html=1;rounded=0;shadow=0;strokeColor=default;strokeWidth=2;align=center;verticalAlign=middle;fontFamily=Helvetica;fontSize=11;fontColor=default;labelBackgroundColor=default;fillColor=#515151;entryX=0.5;entryY=1;entryDx=0;entryDy=0;" parent="1" target="2lmS-5YsYihyagzqlJ5x-4" edge="1">
          <mxGeometry width="50" height="50" relative="1" as="geometry">
            <mxPoint x="-1270" y="1000" as="sourcePoint" />
            <mxPoint x="-1261" y="859" as="targetPoint" />
          </mxGeometry>
        </mxCell>
        <mxCell id="2lmS-5YsYihyagzqlJ5x-10" value="" style="shape=image;imageAspect=0;aspect=fixed;verticalLabelPosition=bottom;verticalAlign=top;image=data:image/jpeg,/9j/4AAQSkZJRgABAQAAAQABAAD/2wBDAAgGBgcGBQgHBwcJCQgKDBQNDAsLDBkSEw8UHRofHh0aHBwgJC4nICIsIxwcKDcpLDAxNDQ0Hyc5PTgyPC4zNDL/2wBDAQkJCQwLDBgNDRgyIRwhMjIyMjIyMjIyMjIyMjIyMjIyMjIyMjIyMjIyMjIyMjIyMjIyMjIyMjIyMjIyMjIyMjL/wgARCADIAMgDASIAAhEBAxEB/8QAGgABAQADAQEAAAAAAAAAAAAAAAUCBAYDAf/EABQBAQAAAAAAAAAAAAAAAAAAAAD/2gAMAwEAAhADEAAAAr4AAAAAAAAAAAAACXmUU4UU4UUTIspwopwop2uWUTaKKcKKcKKXUAAJ1GdRAAJ+OWJSAAmU5hnQn0AACdRnUQACV6fPoABp5fcz2AA1drxPHc1tkAA86s2kAATqM6iE/mTtnJ9UaOOWJSAAmU5hnQn7xk5PVO2T6BOozqIAacQp7EHA+TquuaXTxepJ/wBp/TXe3MnQOMonRaVPIlfafmcS3R69DBwLNTlczp2mPLke94M+A3dLP3NWnMG55Vdc0fGv5E1WwNL7QwNf22oYNoz0s8AfTrW+HIPQmgbulumltatQ0Pf3Gfl91zYa43NX2+mj67P0l7ulumkBvaNI6tyAs/LOJwT78G7pZmG9lPKWzE2y4sCOsCPp9JxZ7+eiG7npGAHTc13hJWABKldUOH3qnuc7vQ+qOc3Zd86AADlOr58j1YfVEP3ldgctvVKxKqgABq6el0ZzXr8tnJX5144fqpPTHqABKq+RwvVyOkOTp+V8gb+p0Jq7XOdGAAAAAAAAAAAAAAAAAAAAAAAAAAAf/9oADAMBAAIAAwAAACHzzzzzzzzzzzzzzjDDDDDDDDDzzxTzyjzzzzzxTzwgADgABCgABzzxTDSjzzzjDRTzhSgiTDDSAhxDyQAgBywDxgAATAgBQQjiCgxQAAyggBBDzzgAgAjzxyhQzzyhwDxzzwSwxTzzwQyxTzzzzzzzzzzzzzzzzzzzzzzzzzzz/9oADAMBAAIAAwAAABDzzzzzzzzzzzzzzzzzDzzjTzzzzzzzwDzzxTzzzzzTzyjzyjzzzTzzzzADzzxTTzzzDCxwjDDBgxjDCgDABiQjBBSgDxQAAADgCgAABTCwASjTzzjDQATzyzjADzyxjCzzzySQhjzzggyTTzzzzzzzzzzzzzzzzzzzzzzzzzzz/8QAFBEBAAAAAAAAAAAAAAAAAAAAcP/aAAgBAgEBPwAp/8QAFBEBAAAAAAAAAAAAAAAAAAAAcP/aAAgBAwEBPwAp/8QAQxAAAAQEAAgJCgUEAwEAAAAAAQIDBAAFERITFBUgITFRkxAiMjVBVFWSsRYjUlNxgYKDkdEGM2FiwSQ0NmByofBz/9oACAEBAAE/Av8ATZiUy0xZoYVRMp764M1OiMkF6683sZIL115vYyQXrrzexkgvXXm9jJBeuvN7ExY4oxUXI7diYtOUp+sEbi9mTspnLggJ2UAh6awjJBeuvN7GSC9deb2MkF6683sZIL115vYyQXrrzewduLKZNClcuDgpfUDnrqCJcxxtimud27Axq8lT9YyQXrrzexkgvXXm9jJBeuvN7GSC9deb2MkF6683sS4pkpg9QwqihSWUvNXozXfPMv8Aj8M6d80LfD4hDDnSYfL8M5/zow+Z4RJOaEfi8RzmnPMw+DwzXfPMv+Pwzp3zQt8PiEMOdJh8vwzn/OjD5nhEk5oR+LxHOac8zD4PDNmSxW8zYrHrYW+tA/SMuMtp+4MZcZbT9wYy4y2n7gxlxltP3BjLjLafuDEzmjZzL1EU77zUpxf1hN6kymb3DXceylAr0RlxltP3BjLjLafuDGXGW0/cGMuMtp+4MZcZbT9wYUepPZmzwN3EvrUKdESyaNm0vTRUvA5a14v6xlxltP3BjLjLafuDGXGW0/cGMuMtp+4MZcZbT9wYlqxXEyfLErYaylQ/TNmBlxfNG6K4pYS6ogFdUYg97TPuwjEHvaZ92EYg97TPuwjEHvaZ92EYg97TPuwh8k+Zszr5ROa2miwNsBjbuYOkyPDJFTtoAFrrCMQe9pn3YRiD3tM+7CMQe9pn3YRiD3tM+7CMQe9pn3YQONtJg2TO8MqVS6oCWmoIYpPnjMi+UTlurosDbGIPe0z7sIxB72mfdhGIPe0z7sIxB72mfdhGIPe0z7sIl5lweu0FlxVwdtBEKa813zzL/j8M6d80LfD4hDDnSYfL8M5/zow+Z4RJOaEfi8RzmnPMw+DwzXfPMv8Aj8OCazMGCYAULljag2QpMHaprjOFPcNIZTpy3OAKmFVPpA2uE1CqplUINSmCoRO+aFvh8QhhzpMPl+Gc/wCdGHzPCJJzQj8XiMKKFSTMocaFKFRh7OnLg44I4pJ9AF1wlMHaJriuFPeNYlUyB+kIGCixeUG3gac8zD4PDNmCpEZqwUUNaQL6iPsjKrHrJInphGbKAPQAAH04ZO6TQlJBXUAhbxKWsTZ+1Xlqqaa5THGlAD2w3dINpo+wygEuspX2RlVj1kkZVY9ZJGVWPWSRlVj1kkZVY9ZJDh0g5mjHAqAe2+tPZEpftUZYkmouUpwrUB9sTh0mvKTCgoBy3gU1OGRGEJqmAdICA/SMqseskiXqkWmr9RM1xRsoIezhmT7EGuEtuMI0KEeUbv1aH0H7wefLqctu2NTaQfvGWT9UZ7uFKzlMypUwK6TpUAHQYIyS99UG8L94CUPBH8sofMLDZmiizTQEpTgXaHTGKt/UJdwIM3RMNTJEEdolgyDUhRMZFIChpEbQidnbndkFsKYls02cEmMgR6IuBJZYPLgqDU5QMVFISjpAbQgrdEo1KkQB2gWMVb+oS7gQ5ZpLM1EAKVMDdIB0wMoeAP5ZR+YWMkvfVBvC/eCVkyZVTJgZ0pWgCOgpYyyfqjPdwSfLp8hu2LXYQfvHlG79Wh9B+8S19j7XCW2mAaCETtHCytTaTjZks4zkyA6lkzE4ZS7EigtTqGKktoAQHkjthdd83XOkdytcUafmDGPO+tLbwYM8dGKJTOVhAdYCccwrx0UoFK5WAA1ABxjHnfWlt4MILvnC5EiOVrjDT8wYmzsVFAakUMZJHRUR5Q7eGZ8V0VENSJCp5kkRwUrT2n40KEBVI6Y6jBSDFEhxKOsBpwoqCiuRQNZTAMTFMEpgsAckRuD2Dp4QOi+YA5Uai4cJUIcAOIDTbHmOxlt4b7Rgk77ciq1pX84Yua4EFslGwYjS7DjFiOGwOR1MJStuGGLmuBw2SjYMBpdhxjBJ32ZFVrSv5wx5jsZbeG+0CdFiwFym1Fu4VqQgCcRGm3hlyYKTBEB5IDcPsDTCygrLHUHWYwjwlKJzgUNYjSEyAkkRMNRQpCihEUxUUMBShrEYm6eDmStOSfjh78x75xqzX2kwY/DwNGgu017OWmW4A2wi4WbGEyKgkEdkZVfdZPEumDpd4RBU4qpqcUxRhdpYGCTauREqg1NQaCEYH+qvxJ5grdWmtYbtLwwSjVyAmUChqDQAiYzF0i8OgkcUk0+KUoRlV91k8LOFnJgMsoJxDbDtoLRNC/lqFuENnAy821eL7CYMPizJQmCkyTEeSTjj7oTUIsmB0zAYo6hCJhMTv1NIiVMOSSH/AJ6XsnH7cEb3ZiXnZSuTpSOCge/RwSZQyJXiheUVGoRlRI2k7FuJukbIym37Pb9yBm1pRBu3SQMOi8hNMY+662v3hjH3XW1+8MY+662v3hgJtcUAcN0lzBovOTTGU2/Z7fuRlRIukjFuBugbInChlis1DcoyNR4FfNSlAnSqcVB92gMxh5mXPXG0uCD3xL5idgpoETJjyiR5OM/WL/UPtD6WJt5KqmkJzWmwnGzJZxnJkR1LEMTglzhBDDlcX2Kkt4kWyb03n/UNJfKnprUl3F/omp9o8nGfrF/qH2jycZ+sX+ofaPJxn6xf6h9o8nGfrF/qH2jycZ+sX+ofaHcvlTI1qq7i/wBEtPtFsm9N5/1ExcIL4Are+xIlvH4JpxXQIhqRIVPMYyxNxJUk1ROW42E4seTjP1i/1D7cChAVSOmOowUgxRIcSjrAacKKgorEUDWUwDDxleosu3OmqlUTUKbSUPZwyy7Kbe3XfnTO7Kbi7Xfws2diiLhydNJKoHoY2kweyFlBWWOoOsxhHhIUTnKQNYjQITICSRUw1FCmY/kaTtQVUz4NQdewYU/D7wnJwZ/YMEZOVFxQBI2EDWGyMguCkFRZRNMhQqI64Fds2SOm1uOc4WmVNo0foESBki4SWUWTKfSABWHlmOrYMAAgHEAAIkCd8zA3oFEf4/nOn6dkzE3plAf4hnZjqOEABIJwAQGJ+yRbponRTKTSIDSAXbOkiJurkzkC0qpQro/UIyC4MQqiKiahDBUB1Qdk5I4BAUjYQdQbYT/D7w/KwZPaMMJGk0UBVQ+EUDVsDPbf5G8/4B/ETpTBypX91C8EmDF5LhR/cf8A99IEajWPw0n/AHCnsLnfiVPS3U9pYAaDUInIYxJsKH7T/wDvrwSVTCSpL9tSw5/yRn/8x8Bz3MxaNRoqqF3ohpGMrOHH9kyOb959AQiMyCbODEKkZxaF5eimiHzzGUAQfILNuNW4oVCDsPNGVQXTWIUKjTQIe6HX9L+HbenBAX68H4fTslt3pnEf4zvxAnfLbvQOA/xwNv6r8O29OCEv0gjDzRVV100SGCoV0iPuhi8xdAUGKCznTW4wUCFhmRpu3MYqRXFo2F6KaYys4b/3rI5f3k0hDaYtHQ0SVC70R0Dms27w07FRwjXSN5jF0e7gZJzAJ4ZRQhtIjeamikLpGUwdqltDcYOgwbIaNHYTg4GQokYRA/F4olh42B20OgI0u6dkBIHuFtoS307obIFbNiIl1FCmc5QK5bHRNqMEDIHuFtoS307tENGxWjQiAabQ17YdNXQzggFQqkUQAnF4oFhBI6d9yl1TcUOgobIeJvxnpVEyGoAhYaminA8bvCzwFEEKaQtMUuj3/wCnf//EACkQAQABAgMIAwEBAQEAAAAAAAERACExUfAQIEFhobHB0XGBkfFg4TD/2gAIAQEAAT8h/wAaYjcsi0ita9VrXqta9VrXqta9UtswEpcGXOsKUS3E7VrXqta9VrXqta9VrXqsKUS3B70t8yFmyMuVa16rWvVa16rWvVa16p2G5Zl0u70+/wBWo597Xcu/V0+79Pv9Wo597Xcu/V0+72sRJJjDeMMMMMZVWBZgGmqAxLgv77xhhhhjXIYtxW9qR2wA3FPneMMMMMtUiSDBG6eDMUwJrTnmtOea055rTnmtOeaFeRpMg80bAfhoRWnPNac81pzzWnPNac80bCfhoTSjzNohHitOea055rTnmtOea055o+mY5gTu9Pv9Wo597Xcu/V0+79PswZYmwGbT+WyUH0VxWPEj4agoImZsq1HPva7l2VTcETlQtxOIXy0NlslD9NCiwpgMzZ0+7lyDlFP6NYGnxSD3XaJYIfv3XPtZFtfqnJH/AHvO7u/4pyTXk6oi9pTwQ/frbgefFJPcK/p0WIecbVq3PMJ5/mzpB5WmRT+991ZuhE5+7ZNggIIFxbHWhEfiTKxdhCdvxAtGe2REFQCDLMTLlsOlyCJkzoz2wIkoOX4AHYQci8ABwNJAgOJc67BFuqU1nrN1r+991J52iTsdL1tPYTy/amgSofrHou4zuhKSdQpEYcdhrEtZ4Yyo8+U7uNac80CBoRCfu4KBoBAftac80+fCcHnjRiEnMeOs9gKwXWmdxMCXqu5NEhV/eHQKxwe/hKMeHI5m3BGT9NesMo77ZMIFLgsx/tA2CqX1pkOD+VljGxXLCuvVcZ4Vf4sbEcsKtrjAcH8pCw1SKiBS4rsP5t9yLx2rEOT9u015MPlrDB5+AoxBzwFG7hVzhPedzmlflUdk2LckJOa5RgIhViV/XqzScZtGNNAJJA64EfFR5TeajCkgFkI9JkjKaTk8DFs6/r0YCIFYFXZEmc1jZzaPyr0O5x3VcoT3ijGHPEVdHVgsc292oj3RJ0edz0Vy542KfCmiblLpuvYy/taF7qDjZYDyZrR3mtHea0d5qDjYYDzZrQvdDouzMP7TjyJoi67PR3P+rcinZBerxV1dXCzzL2dlYFIRmMODgHCdxndTUk6hSIw2Sjoy5gWv4XrTQgEyBTeVq1atWKMImRIU/hetX7LmAaBUC60hN1YEvVdwFIjmCuBiPCNtbHB7+Eo14cvk24JyfppJfhE4y+LaVPiD849J3iJcyfnDpG1Y5ghEvbFWIen7dosyb5GsMVn4DcQ5e2ynipZQff1KskxOcXFyxofrkpQHIKmc+XAWJzOdADSLzFpe5VpwUEgY35tLDaV2q04KCQsUBdYvE2t2aiEvFicDlZlJxclKR5JV1Gozg4meFQygfn6FIcvbYTzv6vlXEN4H2+p2BmEv1aiIrqy1eUyuq+N60Tg3RPNISQjJQZJD922OYZH0+o/8Cqos/wAAwrBmuH8TrQsAjYoQDpUw4ATNh6X4Vxk2ULNVXeGT+YD3dkDDQu29hPQu+y1xIXzIOxXGX5QswUzOLUTbdLcWlBFgwQkPWsOeY6TrQpt/wHHddiMg8Wl+RGwHMI1/hh+iKXTAmGeJVcBXVsy4ZVDqi2YXKXKUuBH5j0pV5ujxzd514hTlk0OFpcDox6U4sbmY3a4/uvJnwzpVsWYI4EU0mIVvjl+2diohlXi8v2Z/x3//xAAoEAEAAQMCBAcBAQEAAAAAAAABEQAhMUFRECBhcYGRobHB8PHRMGD/2gAIAQEAAT8Q/wCNkGQC8Vy5k1HLX5Kv5Kv5Kv5Kv5KrizvxkZAOFrV0UwsjIRMjEZa/JV/JV/JV/JV/JVEs0iyEAAzK84Kxix4YGBTga1+Sr+Sr+Sr+Sr+SrMkgM8wsZdAwf5pev51p6Wp6vmX2O7/NL1/OtPS1PV8y+x3csMOXpkAsdUr6d8V9O+K+nfFfTvivp3xSe8icy102GnpvlOTaMYV9O+K+nfFfTvivp3xX074prTJIzrM5U+uInENcNhX074r6d8V9O+K+nfFfTviiVcrDZCz1Hl0EbFiLPZM681SpUqVGAaub0MsasaVbhCHbrlIunXPNUqVKlQ5QxHLphZuHTFMg8Dchkmbsa81SpUqVNU+wYqx3DOn+aXr+daelqer5l9ju50guSuOMkXibBqzs1NimfDtAHlS6yhEbd7z0VO2aJWU+oSV6/nWnpanq6Qn2n0BLQ7CpGbc7z0EO+aghTL37SD5UMzTVjE2k2TR7nD7Hdy6KXJSIT4oeNCoEz1fyl1Y9dMBxC4IyYdp4tFrDJMwV02Fret3cyY7Q86/Yf5X7D/K/Yf5X7D/K/Yf5TVDr9xInvD5U+ZZJmQtNkfGn0HkwbXxOJ+Uj3UXFBFRsdX8rSE8KDGPETiIDIYiQWUaAu9u9XaO83Ja9ZibMHBiBUJMyoDMIy3E6RVorsBjOphsdiphKYqxRmcq+Fq+4fFQN4kZBBKm1KwCCCJVYsBRYAgBv+ExHpwc4yErG7JiaFgFEUSIxcSpG8QMkhhDavuHxUtgMNUKxEwh4WoLsgRHUSWO5wtRTACkIKzDZsD1mmLzchp1iYuy1do4wZxyYAZWyDtfvXqQL0LkjKBIXBNe/rqRAgYR0eDq4MWbMHJs72mxSluYR2GxITo8JSojNJWRGCO3IAAxCRAAQANOEoX9cBuWwJXoUZuDsmzF1SHjFngDJRAGVpghCJhkvJPEoTyhVPXpPA+9dL8RJD6nGZeEjVBj0qAFl5hEg6RDw4CiIwmtGUa7jLZb9bTbQUKQVgpJrOdBiy826lIs6tZbHXZ8q+VHuLNNS+qaynXcqczxos3Xm3RpUAjDSwoCedbJZpab6GlllzwhTvFwCydIh41KfdLRR+eMV4nukHq0FMdhQHtUtNxQD+9NahjWEwASchal4I6QvV8rwEC5iQIdyLnUDWrZLurkw+VfgP5TjMR11SEJIL9hq3P4QmJWKZd968gCys+0oZH0ADTXJk7bUKmA4RCEpLJftFfgP5V8l3VyYPOo6JNEMO5AL1U04XBZC7VTqed5IRSZMBA0SR3FIPumlSaZQ71DzGmkVJtfgvLz6pLk3ZvxF5Yz4ATYAQSRhzT9PwRumJV+MoSUcUBaYHJZs2SCrilDTIr8ZQ+t5UbJiFyiJkAJSFgxw26TahEnRZnIFFNolV49iVPGZQx1DzGus8As6XpQohYBe5GKBKuCS96yMlEI5GnXYMJluk2Ld+Gru+xDwwfB5goUKFChdBI8wuB4s8NU6SJSYbLFm3aibUQBq0IxKJhCvfkk6d5ATKyC9xChTPc0D71FeJ7JD6nGY+yWqD8VIHNMLJaAE5JtxKEk1NuPjBzASSYvl+EHEzIIaKCUoYyxapSrpaKPzxghEt0g9WgljtKA9uRZNwd/JIp1R8JqCjikojsF6YnnQKYRsrGXel0yY7SuRYxNRq/L1kakLKpzGasySCMUHf0KgCopAYIOxNS4SeJocxjwTe8DTOXZGURT5z4VZukGaGXb1KhNOVrARYWEnfFDQkx2kWws4mryepVMp2VzJtUNHCyo8EvS6Tg7+CVRor4T/AIPrdgXUQz6OCDEEa7S9gpHZZHValxQT9GnNhzRHt8ijXBkNExUXBGUvaHsXCWrJdBLH+AFF+pJoySDJhe8U/b+LD7NN5bIHSCS4b97tOF6VLC4xNyycUVn4nnQgxCUxNbAAN/kJwnWCU7hHufNKC5p2GfceEsaK2oIFmwnnUg1SRzFG62umCwTFiwXaSmiwmkEt036lyj6exZY9dC/Vg1YJQgsNp5VutgW4EhE2GSDaawQVGR8UYgQQ7Jm3em5LASVoiXMOnSZpi4ThOrIJDEIvJfWoogxEyhI2kLbTWCpmRHc9mjKDwULz4ir48yOH4yV56kIPhWCpiBDd9mkyUBiJSkbKttqeqEYxqyRgTKby20onQ1ElaAFjLr1iaXqtJeQIIN0zd6UgkJJQzmhBZCAibjJDtH/Hf//Z;" parent="1" vertex="1">
          <mxGeometry x="-492" y="748" width="110" height="110" as="geometry" />
        </mxCell>
        <mxCell id="2lmS-5YsYihyagzqlJ5x-11" value="&lt;h1 align=&quot;center&quot; style=&quot;margin-top: 0px;&quot;&gt;PROTECTED AREAS&lt;br&gt;&lt;/h1&gt;" style="text;html=1;whiteSpace=wrap;overflow=hidden;rounded=0; align=center;align=right;" parent="1" vertex="1">
          <mxGeometry x="-563" y="991" width="249" height="83" as="geometry" />
        </mxCell>
        <mxCell id="2lmS-5YsYihyagzqlJ5x-15" value="&lt;font style=&quot;font-size: 18px;&quot;&gt;&lt;b&gt;MNRT Institutions Operation Control Centers&lt;br&gt;&lt;/b&gt;&lt;/font&gt;" style="text;html=1;align=center;verticalAlign=middle;whiteSpace=wrap;rounded=0;" parent="1" vertex="1">
          <mxGeometry x="-589" y="706" width="303" height="30" as="geometry" />
        </mxCell>
        <mxCell id="2lmS-5YsYihyagzqlJ5x-18" value="" style="endArrow=classic;html=1;rounded=0;shadow=0;strokeColor=default;strokeWidth=2;align=center;verticalAlign=middle;fontFamily=Helvetica;fontSize=11;fontColor=default;labelBackgroundColor=default;fillColor=#515151;" parent="1" edge="1">
          <mxGeometry width="50" height="50" relative="1" as="geometry">
            <mxPoint x="-500" y="862" as="sourcePoint" />
            <mxPoint x="-840" y="592" as="targetPoint" />
            <Array as="points">
              <mxPoint x="-840" y="862" />
            </Array>
          </mxGeometry>
        </mxCell>
        <mxCell id="2lmS-5YsYihyagzqlJ5x-19" value="" style="endArrow=classic;html=1;rounded=0;shadow=0;strokeColor=default;strokeWidth=2;align=center;verticalAlign=middle;fontFamily=Helvetica;fontSize=11;fontColor=default;labelBackgroundColor=default;fillColor=#515151;exitX=1;exitY=1;exitDx=0;exitDy=0;" parent="1" source="2lmS-5YsYihyagzqlJ5x-23" edge="1">
          <mxGeometry width="50" height="50" relative="1" as="geometry">
            <mxPoint x="-555" y="862" as="sourcePoint" />
            <mxPoint x="-900" y="592" as="targetPoint" />
            <Array as="points">
              <mxPoint x="-900" y="862" />
            </Array>
          </mxGeometry>
        </mxCell>
        <mxCell id="2lmS-5YsYihyagzqlJ5x-22" value="" style="fontColor=#0066CC;verticalAlign=top;verticalLabelPosition=bottom;labelPosition=center;align=center;html=1;outlineConnect=0;fillColor=#61D5FF;strokeColor=#61D5FF;gradientColor=none;gradientDirection=north;strokeWidth=2;shape=mxgraph.networks.radio_tower;" parent="1" vertex="1">
          <mxGeometry x="-1030" y="789" width="40" height="70" as="geometry" />
        </mxCell>
        <mxCell id="2lmS-5YsYihyagzqlJ5x-25" value="" style="rounded=0;whiteSpace=wrap;html=1;strokeColor=#61D5FF;fillColor=#61D5FF;" parent="1" vertex="1">
          <mxGeometry x="-948" y="157" width="170" height="180" as="geometry" />
        </mxCell>
        <mxCell id="2lmS-5YsYihyagzqlJ5x-26" value="" style="shape=image;imageAspect=0;aspect=fixed;verticalLabelPosition=bottom;verticalAlign=top;image=data:image/jpeg,/9j/4AAQSkZJRgABAQAAAQABAAD/2wBDAAgGBgcGBQgHBwcJCQgKDBQNDAsLDBkSEw8UHRofHh0aHBwgJC4nICIsIxwcKDcpLDAxNDQ0Hyc5PTgyPC4zNDL/2wBDAQkJCQwLDBgNDRgyIRwhMjIyMjIyMjIyMjIyMjIyMjIyMjIyMjIyMjIyMjIyMjIyMjIyMjIyMjIyMjIyMjIyMjL/wgARCADIAMgDASIAAhEBAxEB/8QAGgABAQADAQEAAAAAAAAAAAAAAAUCBAYDAf/EABQBAQAAAAAAAAAAAAAAAAAAAAD/2gAMAwEAAhADEAAAAr4AAAAAAAAAAAAACXmUU4UU4UUTIspwopwop2uWUTaKKcKKcKKXUAAJ1GdRAAJ+OWJSAAmU5hnQn0AACdRnUQACV6fPoABp5fcz2AA1drxPHc1tkAA86s2kAATqM6iE/mTtnJ9UaOOWJSAAmU5hnQn7xk5PVO2T6BOozqIAacQp7EHA+TquuaXTxepJ/wBp/TXe3MnQOMonRaVPIlfafmcS3R69DBwLNTlczp2mPLke94M+A3dLP3NWnMG55Vdc0fGv5E1WwNL7QwNf22oYNoz0s8AfTrW+HIPQmgbulumltatQ0Pf3Gfl91zYa43NX2+mj67P0l7ulumkBvaNI6tyAs/LOJwT78G7pZmG9lPKWzE2y4sCOsCPp9JxZ7+eiG7npGAHTc13hJWABKldUOH3qnuc7vQ+qOc3Zd86AADlOr58j1YfVEP3ldgctvVKxKqgABq6el0ZzXr8tnJX5144fqpPTHqABKq+RwvVyOkOTp+V8gb+p0Jq7XOdGAAAAAAAAAAAAAAAAAAAAAAAAAAAf/9oADAMBAAIAAwAAACHzzzzzzzzzzzzzzjDDDDDDDDDzzxTzyjzzzzzxTzwgADgABCgABzzxTDSjzzzjDRTzhSgiTDDSAhxDyQAgBywDxgAATAgBQQjiCgxQAAyggBBDzzgAgAjzxyhQzzyhwDxzzwSwxTzzwQyxTzzzzzzzzzzzzzzzzzzzzzzzzzzz/9oADAMBAAIAAwAAABDzzzzzzzzzzzzzzzzzDzzjTzzzzzzzwDzzxTzzzzzTzyjzyjzzzTzzzzADzzxTTzzzDCxwjDDBgxjDCgDABiQjBBSgDxQAAADgCgAABTCwASjTzzjDQATzyzjADzyxjCzzzySQhjzzggyTTzzzzzzzzzzzzzzzzzzzzzzzzzzz/8QAFBEBAAAAAAAAAAAAAAAAAAAAcP/aAAgBAgEBPwAp/8QAFBEBAAAAAAAAAAAAAAAAAAAAcP/aAAgBAwEBPwAp/8QAQxAAAAQEAAgJCgUEAwEAAAAAAQIDBAAFERITFBUgITFRkxAiMjVBVFWSsRYjUlNxgYKDkdEGM2FiwSQ0NmByofBz/9oACAEBAAE/Av8ATZiUy0xZoYVRMp764M1OiMkF6683sZIL115vYyQXrrzexkgvXXm9jJBeuvN7ExY4oxUXI7diYtOUp+sEbi9mTspnLggJ2UAh6awjJBeuvN7GSC9deb2MkF6683sZIL115vYyQXrrzewduLKZNClcuDgpfUDnrqCJcxxtimud27Axq8lT9YyQXrrzexkgvXXm9jJBeuvN7GSC9deb2MkF6683sS4pkpg9QwqihSWUvNXozXfPMv8Aj8M6d80LfD4hDDnSYfL8M5/zow+Z4RJOaEfi8RzmnPMw+DwzXfPMv+Pwzp3zQt8PiEMOdJh8vwzn/OjD5nhEk5oR+LxHOac8zD4PDNmSxW8zYrHrYW+tA/SMuMtp+4MZcZbT9wYy4y2n7gxlxltP3BjLjLafuDEzmjZzL1EU77zUpxf1hN6kymb3DXceylAr0RlxltP3BjLjLafuDGXGW0/cGMuMtp+4MZcZbT9wYUepPZmzwN3EvrUKdESyaNm0vTRUvA5a14v6xlxltP3BjLjLafuDGXGW0/cGMuMtp+4MZcZbT9wYlqxXEyfLErYaylQ/TNmBlxfNG6K4pYS6ogFdUYg97TPuwjEHvaZ92EYg97TPuwjEHvaZ92EYg97TPuwh8k+Zszr5ROa2miwNsBjbuYOkyPDJFTtoAFrrCMQe9pn3YRiD3tM+7CMQe9pn3YRiD3tM+7CMQe9pn3YQONtJg2TO8MqVS6oCWmoIYpPnjMi+UTlurosDbGIPe0z7sIxB72mfdhGIPe0z7sIxB72mfdhGIPe0z7sIl5lweu0FlxVwdtBEKa813zzL/j8M6d80LfD4hDDnSYfL8M5/zow+Z4RJOaEfi8RzmnPMw+DwzXfPMv8Aj8OCazMGCYAULljag2QpMHaprjOFPcNIZTpy3OAKmFVPpA2uE1CqplUINSmCoRO+aFvh8QhhzpMPl+Gc/wCdGHzPCJJzQj8XiMKKFSTMocaFKFRh7OnLg44I4pJ9AF1wlMHaJriuFPeNYlUyB+kIGCixeUG3gac8zD4PDNmCpEZqwUUNaQL6iPsjKrHrJInphGbKAPQAAH04ZO6TQlJBXUAhbxKWsTZ+1Xlqqaa5THGlAD2w3dINpo+wygEuspX2RlVj1kkZVY9ZJGVWPWSRlVj1kkZVY9ZJDh0g5mjHAqAe2+tPZEpftUZYkmouUpwrUB9sTh0mvKTCgoBy3gU1OGRGEJqmAdICA/SMqseskiXqkWmr9RM1xRsoIezhmT7EGuEtuMI0KEeUbv1aH0H7wefLqctu2NTaQfvGWT9UZ7uFKzlMypUwK6TpUAHQYIyS99UG8L94CUPBH8sofMLDZmiizTQEpTgXaHTGKt/UJdwIM3RMNTJEEdolgyDUhRMZFIChpEbQidnbndkFsKYls02cEmMgR6IuBJZYPLgqDU5QMVFISjpAbQgrdEo1KkQB2gWMVb+oS7gQ5ZpLM1EAKVMDdIB0wMoeAP5ZR+YWMkvfVBvC/eCVkyZVTJgZ0pWgCOgpYyyfqjPdwSfLp8hu2LXYQfvHlG79Wh9B+8S19j7XCW2mAaCETtHCytTaTjZks4zkyA6lkzE4ZS7EigtTqGKktoAQHkjthdd83XOkdytcUafmDGPO+tLbwYM8dGKJTOVhAdYCccwrx0UoFK5WAA1ABxjHnfWlt4MILvnC5EiOVrjDT8wYmzsVFAakUMZJHRUR5Q7eGZ8V0VENSJCp5kkRwUrT2n40KEBVI6Y6jBSDFEhxKOsBpwoqCiuRQNZTAMTFMEpgsAckRuD2Dp4QOi+YA5Uai4cJUIcAOIDTbHmOxlt4b7Rgk77ciq1pX84Yua4EFslGwYjS7DjFiOGwOR1MJStuGGLmuBw2SjYMBpdhxjBJ32ZFVrSv5wx5jsZbeG+0CdFiwFym1Fu4VqQgCcRGm3hlyYKTBEB5IDcPsDTCygrLHUHWYwjwlKJzgUNYjSEyAkkRMNRQpCihEUxUUMBShrEYm6eDmStOSfjh78x75xqzX2kwY/DwNGgu017OWmW4A2wi4WbGEyKgkEdkZVfdZPEumDpd4RBU4qpqcUxRhdpYGCTauREqg1NQaCEYH+qvxJ5grdWmtYbtLwwSjVyAmUChqDQAiYzF0i8OgkcUk0+KUoRlV91k8LOFnJgMsoJxDbDtoLRNC/lqFuENnAy821eL7CYMPizJQmCkyTEeSTjj7oTUIsmB0zAYo6hCJhMTv1NIiVMOSSH/AJ6XsnH7cEb3ZiXnZSuTpSOCge/RwSZQyJXiheUVGoRlRI2k7FuJukbIym37Pb9yBm1pRBu3SQMOi8hNMY+662v3hjH3XW1+8MY+662v3hgJtcUAcN0lzBovOTTGU2/Z7fuRlRIukjFuBugbInChlis1DcoyNR4FfNSlAnSqcVB92gMxh5mXPXG0uCD3xL5idgpoETJjyiR5OM/WL/UPtD6WJt5KqmkJzWmwnGzJZxnJkR1LEMTglzhBDDlcX2Kkt4kWyb03n/UNJfKnprUl3F/omp9o8nGfrF/qH2jycZ+sX+ofaPJxn6xf6h9o8nGfrF/qH2jycZ+sX+ofaHcvlTI1qq7i/wBEtPtFsm9N5/1ExcIL4Are+xIlvH4JpxXQIhqRIVPMYyxNxJUk1ROW42E4seTjP1i/1D7cChAVSOmOowUgxRIcSjrAacKKgorEUDWUwDDxleosu3OmqlUTUKbSUPZwyy7Kbe3XfnTO7Kbi7Xfws2diiLhydNJKoHoY2kweyFlBWWOoOsxhHhIUTnKQNYjQITICSRUw1FCmY/kaTtQVUz4NQdewYU/D7wnJwZ/YMEZOVFxQBI2EDWGyMguCkFRZRNMhQqI64Fds2SOm1uOc4WmVNo0foESBki4SWUWTKfSABWHlmOrYMAAgHEAAIkCd8zA3oFEf4/nOn6dkzE3plAf4hnZjqOEABIJwAQGJ+yRbponRTKTSIDSAXbOkiJurkzkC0qpQro/UIyC4MQqiKiahDBUB1Qdk5I4BAUjYQdQbYT/D7w/KwZPaMMJGk0UBVQ+EUDVsDPbf5G8/4B/ETpTBypX91C8EmDF5LhR/cf8A99IEajWPw0n/AHCnsLnfiVPS3U9pYAaDUInIYxJsKH7T/wDvrwSVTCSpL9tSw5/yRn/8x8Bz3MxaNRoqqF3ohpGMrOHH9kyOb959AQiMyCbODEKkZxaF5eimiHzzGUAQfILNuNW4oVCDsPNGVQXTWIUKjTQIe6HX9L+HbenBAX68H4fTslt3pnEf4zvxAnfLbvQOA/xwNv6r8O29OCEv0gjDzRVV100SGCoV0iPuhi8xdAUGKCznTW4wUCFhmRpu3MYqRXFo2F6KaYys4b/3rI5f3k0hDaYtHQ0SVC70R0Dms27w07FRwjXSN5jF0e7gZJzAJ4ZRQhtIjeamikLpGUwdqltDcYOgwbIaNHYTg4GQokYRA/F4olh42B20OgI0u6dkBIHuFtoS307obIFbNiIl1FCmc5QK5bHRNqMEDIHuFtoS307tENGxWjQiAabQ17YdNXQzggFQqkUQAnF4oFhBI6d9yl1TcUOgobIeJvxnpVEyGoAhYaminA8bvCzwFEEKaQtMUuj3/wCnf//EACkQAQABAgMIAwEBAQEAAAAAAAERACExUfAQIEFhobHB0XGBkfFg4TD/2gAIAQEAAT8h/wAaYjcsi0ita9VrXqta9VrXqta9UtswEpcGXOsKUS3E7VrXqta9VrXqta9VrXqsKUS3B70t8yFmyMuVa16rWvVa16rWvVa16p2G5Zl0u70+/wBWo597Xcu/V0+79Pv9Wo597Xcu/V0+72sRJJjDeMMMMMZVWBZgGmqAxLgv77xhhhhjXIYtxW9qR2wA3FPneMMMMMtUiSDBG6eDMUwJrTnmtOea055rTnmtOeaFeRpMg80bAfhoRWnPNac81pzzWnPNac80bCfhoTSjzNohHitOea055rTnmtOea055o+mY5gTu9Pv9Wo597Xcu/V0+79PswZYmwGbT+WyUH0VxWPEj4agoImZsq1HPva7l2VTcETlQtxOIXy0NlslD9NCiwpgMzZ0+7lyDlFP6NYGnxSD3XaJYIfv3XPtZFtfqnJH/AHvO7u/4pyTXk6oi9pTwQ/frbgefFJPcK/p0WIecbVq3PMJ5/mzpB5WmRT+991ZuhE5+7ZNggIIFxbHWhEfiTKxdhCdvxAtGe2REFQCDLMTLlsOlyCJkzoz2wIkoOX4AHYQci8ABwNJAgOJc67BFuqU1nrN1r+991J52iTsdL1tPYTy/amgSofrHou4zuhKSdQpEYcdhrEtZ4Yyo8+U7uNac80CBoRCfu4KBoBAftac80+fCcHnjRiEnMeOs9gKwXWmdxMCXqu5NEhV/eHQKxwe/hKMeHI5m3BGT9NesMo77ZMIFLgsx/tA2CqX1pkOD+VljGxXLCuvVcZ4Vf4sbEcsKtrjAcH8pCw1SKiBS4rsP5t9yLx2rEOT9u015MPlrDB5+AoxBzwFG7hVzhPedzmlflUdk2LckJOa5RgIhViV/XqzScZtGNNAJJA64EfFR5TeajCkgFkI9JkjKaTk8DFs6/r0YCIFYFXZEmc1jZzaPyr0O5x3VcoT3ijGHPEVdHVgsc292oj3RJ0edz0Vy542KfCmiblLpuvYy/taF7qDjZYDyZrR3mtHea0d5qDjYYDzZrQvdDouzMP7TjyJoi67PR3P+rcinZBerxV1dXCzzL2dlYFIRmMODgHCdxndTUk6hSIw2Sjoy5gWv4XrTQgEyBTeVq1atWKMImRIU/hetX7LmAaBUC60hN1YEvVdwFIjmCuBiPCNtbHB7+Eo14cvk24JyfppJfhE4y+LaVPiD849J3iJcyfnDpG1Y5ghEvbFWIen7dosyb5GsMVn4DcQ5e2ynipZQff1KskxOcXFyxofrkpQHIKmc+XAWJzOdADSLzFpe5VpwUEgY35tLDaV2q04KCQsUBdYvE2t2aiEvFicDlZlJxclKR5JV1Gozg4meFQygfn6FIcvbYTzv6vlXEN4H2+p2BmEv1aiIrqy1eUyuq+N60Tg3RPNISQjJQZJD922OYZH0+o/8Cqos/wAAwrBmuH8TrQsAjYoQDpUw4ATNh6X4Vxk2ULNVXeGT+YD3dkDDQu29hPQu+y1xIXzIOxXGX5QswUzOLUTbdLcWlBFgwQkPWsOeY6TrQpt/wHHddiMg8Wl+RGwHMI1/hh+iKXTAmGeJVcBXVsy4ZVDqi2YXKXKUuBH5j0pV5ujxzd514hTlk0OFpcDox6U4sbmY3a4/uvJnwzpVsWYI4EU0mIVvjl+2diohlXi8v2Z/x3//xAAoEAEAAQMCBAcBAQEAAAAAAAABEQAhMUFRECBhcYGRobHB8PHRMGD/2gAIAQEAAT8Q/wCNkGQC8Vy5k1HLX5Kv5Kv5Kv5Kv5KrizvxkZAOFrV0UwsjIRMjEZa/JV/JV/JV/JV/JVEs0iyEAAzK84Kxix4YGBTga1+Sr+Sr+Sr+Sr+SrMkgM8wsZdAwf5pev51p6Wp6vmX2O7/NL1/OtPS1PV8y+x3csMOXpkAsdUr6d8V9O+K+nfFfTvivp3xSe8icy102GnpvlOTaMYV9O+K+nfFfTvivp3xX074prTJIzrM5U+uInENcNhX074r6d8V9O+K+nfFfTviiVcrDZCz1Hl0EbFiLPZM681SpUqVGAaub0MsasaVbhCHbrlIunXPNUqVKlQ5QxHLphZuHTFMg8Dchkmbsa81SpUqVNU+wYqx3DOn+aXr+daelqer5l9ju50guSuOMkXibBqzs1NimfDtAHlS6yhEbd7z0VO2aJWU+oSV6/nWnpanq6Qn2n0BLQ7CpGbc7z0EO+aghTL37SD5UMzTVjE2k2TR7nD7Hdy6KXJSIT4oeNCoEz1fyl1Y9dMBxC4IyYdp4tFrDJMwV02Fret3cyY7Q86/Yf5X7D/K/Yf5X7D/K/Yf5TVDr9xInvD5U+ZZJmQtNkfGn0HkwbXxOJ+Uj3UXFBFRsdX8rSE8KDGPETiIDIYiQWUaAu9u9XaO83Ja9ZibMHBiBUJMyoDMIy3E6RVorsBjOphsdiphKYqxRmcq+Fq+4fFQN4kZBBKm1KwCCCJVYsBRYAgBv+ExHpwc4yErG7JiaFgFEUSIxcSpG8QMkhhDavuHxUtgMNUKxEwh4WoLsgRHUSWO5wtRTACkIKzDZsD1mmLzchp1iYuy1do4wZxyYAZWyDtfvXqQL0LkjKBIXBNe/rqRAgYR0eDq4MWbMHJs72mxSluYR2GxITo8JSojNJWRGCO3IAAxCRAAQANOEoX9cBuWwJXoUZuDsmzF1SHjFngDJRAGVpghCJhkvJPEoTyhVPXpPA+9dL8RJD6nGZeEjVBj0qAFl5hEg6RDw4CiIwmtGUa7jLZb9bTbQUKQVgpJrOdBiy826lIs6tZbHXZ8q+VHuLNNS+qaynXcqczxos3Xm3RpUAjDSwoCedbJZpab6GlllzwhTvFwCydIh41KfdLRR+eMV4nukHq0FMdhQHtUtNxQD+9NahjWEwASchal4I6QvV8rwEC5iQIdyLnUDWrZLurkw+VfgP5TjMR11SEJIL9hq3P4QmJWKZd968gCys+0oZH0ADTXJk7bUKmA4RCEpLJftFfgP5V8l3VyYPOo6JNEMO5AL1U04XBZC7VTqed5IRSZMBA0SR3FIPumlSaZQ71DzGmkVJtfgvLz6pLk3ZvxF5Yz4ATYAQSRhzT9PwRumJV+MoSUcUBaYHJZs2SCrilDTIr8ZQ+t5UbJiFyiJkAJSFgxw26TahEnRZnIFFNolV49iVPGZQx1DzGus8As6XpQohYBe5GKBKuCS96yMlEI5GnXYMJluk2Ld+Gru+xDwwfB5goUKFChdBI8wuB4s8NU6SJSYbLFm3aibUQBq0IxKJhCvfkk6d5ATKyC9xChTPc0D71FeJ7JD6nGY+yWqD8VIHNMLJaAE5JtxKEk1NuPjBzASSYvl+EHEzIIaKCUoYyxapSrpaKPzxghEt0g9WgljtKA9uRZNwd/JIp1R8JqCjikojsF6YnnQKYRsrGXel0yY7SuRYxNRq/L1kakLKpzGasySCMUHf0KgCopAYIOxNS4SeJocxjwTe8DTOXZGURT5z4VZukGaGXb1KhNOVrARYWEnfFDQkx2kWws4mryepVMp2VzJtUNHCyo8EvS6Tg7+CVRor4T/AIPrdgXUQz6OCDEEa7S9gpHZZHValxQT9GnNhzRHt8ijXBkNExUXBGUvaHsXCWrJdBLH+AFF+pJoySDJhe8U/b+LD7NN5bIHSCS4b97tOF6VLC4xNyycUVn4nnQgxCUxNbAAN/kJwnWCU7hHufNKC5p2GfceEsaK2oIFmwnnUg1SRzFG62umCwTFiwXaSmiwmkEt036lyj6exZY9dC/Vg1YJQgsNp5VutgW4EhE2GSDaawQVGR8UYgQQ7Jm3em5LASVoiXMOnSZpi4ThOrIJDEIvJfWoogxEyhI2kLbTWCpmRHc9mjKDwULz4ir48yOH4yV56kIPhWCpiBDd9mkyUBiJSkbKttqeqEYxqyRgTKby20onQ1ElaAFjLr1iaXqtJeQIIN0zd6UgkJJQzmhBZCAibjJDtH/Hf//Z;" parent="1" vertex="1">
          <mxGeometry x="-943" y="166" width="162" height="162" as="geometry" />
        </mxCell>
        <mxCell id="2lmS-5YsYihyagzqlJ5x-27" value="" style="fontColor=#0066CC;verticalAlign=top;verticalLabelPosition=bottom;labelPosition=center;align=center;html=1;outlineConnect=0;fillColor=#61D5FF;strokeColor=#61D5FF;gradientColor=none;gradientDirection=north;strokeWidth=2;shape=mxgraph.networks.radio_tower;" parent="1" vertex="1">
          <mxGeometry x="-770" y="789" width="40" height="70" as="geometry" />
        </mxCell>
        <mxCell id="2lmS-5YsYihyagzqlJ5x-28" value="" style="fontColor=#0066CC;verticalAlign=top;verticalLabelPosition=bottom;labelPosition=center;align=center;html=1;outlineConnect=0;fillColor=#61D5FF;strokeColor=#61D5FF;gradientColor=none;gradientDirection=north;strokeWidth=2;shape=mxgraph.networks.radio_tower;" parent="1" vertex="1">
          <mxGeometry x="-1315" y="898" width="40" height="70" as="geometry" />
        </mxCell>
        <mxCell id="2lmS-5YsYihyagzqlJ5x-29" value="" style="fontColor=#0066CC;verticalAlign=top;verticalLabelPosition=bottom;labelPosition=center;align=center;html=1;outlineConnect=0;fillColor=#61D5FF;strokeColor=#61D5FF;gradientColor=none;gradientDirection=north;strokeWidth=2;shape=mxgraph.networks.radio_tower;" parent="1" vertex="1">
          <mxGeometry x="-430" y="890" width="40" height="70" as="geometry" />
        </mxCell>
        <mxCell id="2lmS-5YsYihyagzqlJ5x-31" value="" style="endArrow=classic;html=1;rounded=0;shadow=0;strokeColor=default;strokeWidth=2;align=center;verticalAlign=middle;fontFamily=Helvetica;fontSize=11;fontColor=default;labelBackgroundColor=default;fillColor=#515151;entryX=0.5;entryY=1;entryDx=0;entryDy=0;exitX=0.5;exitY=0;exitDx=0;exitDy=0;" parent="1" source="bmdBSv6gznFxY5QFB66U-2" target="2lmS-5YsYihyagzqlJ5x-25" edge="1">
          <mxGeometry width="50" height="50" relative="1" as="geometry">
            <mxPoint x="-863" y="472" as="sourcePoint" />
            <mxPoint x="-971" y="362" as="targetPoint" />
          </mxGeometry>
        </mxCell>
        <mxCell id="2lmS-5YsYihyagzqlJ5x-32" value="" style="fontColor=#0066CC;verticalAlign=top;verticalLabelPosition=bottom;labelPosition=center;align=center;html=1;outlineConnect=0;fillColor=#61D5FF;strokeColor=#61D5FF;gradientColor=none;gradientDirection=north;strokeWidth=2;shape=mxgraph.networks.radio_tower;" parent="1" vertex="1">
          <mxGeometry x="-860" y="390" width="40" height="70" as="geometry" />
        </mxCell>
        <mxCell id="2lmS-5YsYihyagzqlJ5x-33" value="&lt;b&gt;&lt;font style=&quot;font-size: 24px;&quot;&gt;DW (NTAP)&lt;/font&gt;&lt;/b&gt;" style="rounded=0;whiteSpace=wrap;html=1;strokeColor=#61D5FF;" parent="1" vertex="1">
          <mxGeometry x="-1282" y="152" width="135" height="40" as="geometry" />
        </mxCell>
        <mxCell id="2lmS-5YsYihyagzqlJ5x-34" value="&lt;b&gt;&lt;font style=&quot;font-size: 24px;&quot;&gt;DPCU&lt;/font&gt;&lt;/b&gt;" style="rounded=0;whiteSpace=wrap;html=1;strokeColor=#61D5FF;" parent="1" vertex="1">
          <mxGeometry x="-600" y="152" width="120" height="40" as="geometry" />
        </mxCell>
        <mxCell id="2lmS-5YsYihyagzqlJ5x-35" value="" style="endArrow=classic;html=1;rounded=0;shadow=0;strokeColor=default;strokeWidth=2;align=center;verticalAlign=middle;fontFamily=Helvetica;fontSize=11;fontColor=default;labelBackgroundColor=default;fillColor=#515151;exitX=0;exitY=0.75;exitDx=0;exitDy=0;entryX=0.5;entryY=1;entryDx=0;entryDy=0;" parent="1" source="2lmS-5YsYihyagzqlJ5x-25" target="2lmS-5YsYihyagzqlJ5x-33" edge="1">
          <mxGeometry width="50" height="50" relative="1" as="geometry">
            <mxPoint x="-1520" y="472" as="sourcePoint" />
            <mxPoint x="-1210" y="202" as="targetPoint" />
            <Array as="points">
              <mxPoint x="-1215" y="292" />
            </Array>
          </mxGeometry>
        </mxCell>
        <mxCell id="2lmS-5YsYihyagzqlJ5x-36" value="" style="endArrow=classic;html=1;rounded=0;shadow=0;strokeColor=default;strokeWidth=2;align=center;verticalAlign=middle;fontFamily=Helvetica;fontSize=11;fontColor=default;labelBackgroundColor=default;fillColor=#515151;exitX=1;exitY=0.75;exitDx=0;exitDy=0;entryX=0.5;entryY=1;entryDx=0;entryDy=0;" parent="1" source="2lmS-5YsYihyagzqlJ5x-25" target="2lmS-5YsYihyagzqlJ5x-34" edge="1">
          <mxGeometry width="50" height="50" relative="1" as="geometry">
            <mxPoint x="-284" y="292" as="sourcePoint" />
            <mxPoint x="-546" y="202" as="targetPoint" />
            <Array as="points">
              <mxPoint x="-540" y="292" />
            </Array>
          </mxGeometry>
        </mxCell>
        <mxCell id="2lmS-5YsYihyagzqlJ5x-37" value="&lt;font style=&quot;font-size: 18px;&quot;&gt;&lt;b&gt;MNRT HQ&lt;br&gt;&lt;/b&gt;&lt;/font&gt;" style="text;html=1;align=center;verticalAlign=middle;whiteSpace=wrap;rounded=0;" parent="1" vertex="1">
          <mxGeometry x="-966.5" y="130" width="207" height="30" as="geometry" />
        </mxCell>
        <mxCell id="2lmS-5YsYihyagzqlJ5x-38" value="&lt;div align=&quot;left&quot;&gt;&lt;b&gt;&lt;font style=&quot;font-size: 18px;&quot; color=&quot;#ff3333&quot;&gt;-UHTMIS&lt;/font&gt;&lt;/b&gt;&lt;/div&gt;&lt;div align=&quot;left&quot;&gt;&lt;b&gt;&lt;font style=&quot;font-size: 18px;&quot; color=&quot;#ff3333&quot;&gt;-Semantica&lt;/font&gt;&lt;/b&gt;&lt;/div&gt;" style="text;html=1;align=left;verticalAlign=middle;whiteSpace=wrap;rounded=0;" parent="1" vertex="1">
          <mxGeometry x="-965" y="336" width="130" height="44" as="geometry" />
        </mxCell>
        <mxCell id="bmdBSv6gznFxY5QFB66U-1" value="" style="shape=image;imageAspect=0;aspect=fixed;verticalLabelPosition=bottom;verticalAlign=top;image=data:image/jpeg,/9j/4AAQSkZJRgABAQAAAQABAAD/2wBDAAYEBQYFBAYGBQYHBwYIChAKCgkJChQODwwQFxQYGBcUFhYaHSUfGhsjHBYWICwgIyYnKSopGR8tMC0oMCUoKSj/2wBDAQcHBwoIChMKChMoGhYaKCgoKCgoKCgoKCgoKCgoKCgoKCgoKCgoKCgoKCgoKCgoKCgoKCgoKCgoKCgoKCgoKCj/wgARCADgAOADASIAAhEBAxEB/8QAGwAAAgMBAQEAAAAAAAAAAAAAAAYCBAUDBwH/xAAYAQEBAQEBAAAAAAAAAAAAAAAAAQIDBP/aAAwDAQACEAMQAAACagAAAAAADgd8pVmaMbMk67SdmL6OZ2iAAAAAAAAAAAAAAAfPP2bCNXcBAAKN4PPXXOXlaeuPxHLp5s4mwAAAAAAAAAAGYYGqpOqXipIsmdeJmZdOpSkXCvYKyP6CqDLdR2tboAAAAAAAFFF0tctXgTK6aIL+12Bb2bYYvTWiUM/O4ysybJjxc3i4KONNHNU59cejmNs6BSTh+PPA9DPPAg9+c3EfhCB9EKQ9mbpAAHDvhCu9I7j5+nbAymOsnU01fcbcPnDhvm6o7T6+WDX7xS38W/ljKLPIaxb4jUK/QZK640rluXm/ePQTz4PQfPJA1fFY471nXzR97ZvcuvE88eEh083TB6VrPXBGUemcXdq8NZu5NkTTyZlna7mBns2XqZ6L+4v902TGt3N4W9Zb3bHjLc59KudMC5d1eeq1NmxOO6zOpPHr5KMZRThwpsmbjm0c9YptBim0GPqLLN3wt94biY1u8XK3rXhc2Op2lo0b3LOpmiYudkNBqZLsm3dOcZRTF+snwXBjJVwYwXBjBUaZR1FXvabOO0kdjFSR2BJ0dnA65uYu0deeUdt1Fy5urIxVbVXOyMomL05sfPWAMRz0ujEC6MQKbQss3o5q1k2zENsrENsMTQt9yjj7HKKQwAv29XqQq2qoRlE48evCpEQkRCREJ6eXqC7rZGtx39Phi/T4HPh15dc3KV2jZePhx2Z1+h0yxVbVXpkjKJi7WKz8/RUMvXz0gVvpYJXptPZlpl7+HA3Fmwm8YJW8YIb3Zb0Drz6Y0NItgydVa4bFW1VCMomKzYVbPRoFcz1aBXBo+qwQZV9g6+bCYlGxz7Mwsk2zCyG7l17++XXtxx5h4E047b1At9M69W1V6Z6ZbytHEkESQRJBEkEa9oMbcgEyATIBMgGZZtBaKoWiqFa6Mq//2gAMAwEAAgADAAAAIQAAAACNbCAAAAAAAAAHAw0/BKAAAAAAAHTyz3w04AAAAAJI88w59fSEyCDDNQwyw113lOAJ3+9+sLzzbTEJCV9PffIKhQQirOIF2fvuiKkQQvs4XF7/AL74jrLLr0oENe/LLIuc00is9sNcQ002BjPMDvMsNf7/APwKTxxk7/rDX3cctJ+88krznD9DDDDjjDDDxDD8/9oADAMBAAIAAwAAABDzzzzwjNTTzzzzzzzzwSIIKaLDzzzzzzy8I4r4qVDzzzzwoKIKJaa/VnTjDDMEEIIYyIApBokEQkpnGNrDhZ+rY614oU8hKl1lSpkMMelHOAarKOaqkAACv08+ijyZWq7PPMq3zw3529WrXzzwrvDAuzCJWq8gAeIgABH7KZWr1u/CmU88XzxpWf777473777803r/xAA2EQABAwICBggFAwUAAAAAAAABAAIRAwQSMQUTFBUhURAgMkFSYZGhIlOB4fAwYsEjJEJjsf/aAAgBAgEBPwDrQo/XIUfojrHrgT0QoUdFavToDE8wFe31OjSJa4Yo4LRukzVJbXcAe7uTbik5+qDvi6oKlT1NOtaWsP8AlKtNEU2NDqwlyraLtqojDB8la2uovRTq92Xny/Pp0MzQJJgBEuBghHEBJCGI8Q1AyChK4ogkJuinmq2rUqF0Hl9+nTUmtTDO17+X8rRwrCj/AF857+SZmqVV9InD3p9ao94ecwqlzVqNLSEy6qsaGgIA8ZTWPwYwOCbSqvGJoTGVHkhoyTmvYYeIVxWZRBe88FW0vb02y04irO6Na9FSqJn2/Pv0MzV3fstI1net+0PP0W/aHn6LflDz9Ex2ISmvfgwA8E2rVYMLSmPqMJLTmnOe8y8yq9FlYFjxIW6rbwf9VGxo0DiptgoiEzNPotf2hK2Sl4R6LZKXhHotkpeEeiDcIV5pI2tTAGTwn84Lfbvln1+y3275Z9fsrG8N00uLYgplPW1MMwqdvjqFmLJV6GpI4zKdmmZq+r16MahuKVt1/wDK9ituv/lexW3X/wAr2Kp5cUADmsLeawt5oBsp3aUBQE7NMzRwr4V8K+FCI4K823Wf2/ZjyzUaU5j2UaU5j2VhtGE7TnPll9Fe67AdR2lGlOY9lY7Vx2n6ZfwnZpmavnubGEwnisx4YXZqK2s1WPin1KrHFpdkqfZQI71ibyWJvJAiU7g5SFITs0zNXNtro4rd/wC5bv8A3Ld3mmCBCrWutdilbvPiW7z4lbUNSImVe2+0sNOYlbi/2H0+6sbHZJGKZTs0DCxlYysZWMrGSg4hYysZWMrEZlYisRRMr//EADYRAAEEAAQCBwYEBwAAAAAAAAEAAgMRBBITMRQhBRAgIkFRUhUWJDKR8CNhY+EwQENTYnGh/9oACAEDAQE/AO1f8jf8E9ods9i+pkbn8gFDA5zqI5LEYbLRYEY3BuYjl2SqVdjBE2fJS4txNM2TMTI072pJc8Jc3qdsnFrPmNIOYRYdyTXscaa4FGSMGi4KqRVIckcUMpa1tX14P5HXssRkz9zZO2WJwkWKAEngosFFFE6Ft05Yfo6DDvEjCbCl6Lw8ry9xNlcuQCdNEJBET3ipcZh4nFj3UQpcRDCA57qB2UU0U7S6M2FEwv5NTMJI48+SljyQlrep2yigMvyrgnrgnrgnpwop0MRkEpHeClweHlcXvbZKlw8MwDXtsDZRQxQNLYxQUbyzmFxUnmnzueKcep2yEhGy1nea1nea1neaJsqLDiRtkrgh6lwQ9SnhERq7WIn4eIyVdKbHaULZcl5vBYLGcUHHLVIJ2ygYx3zmlowepaMHqWjB6k7dEnwVlWUSU3ZWVZQTtl3l3l3l3kbvmotHL+Juvhvu18N92p9P+moMljPsvhvu1Np8tNBO2XQcMcpfqNBqt1A/BzQumEQpv5BZ8Hw3E6Qr/Q86UOGws0bZBGOf5BS8nkIg+CoqiiChsqKooJ2y6P6Q4KyBdr3gP9sfX9l7wHbTH1/Ze8J9H/U92Z1rBdKcJHp5LXt/9MfVe3/0x9Vj8bxjg7LVBQSaZzLjf8VPNq1yQRFrKFlCyhZQsoRFrKFlCyhV4KlXV//EAEEQAAAFAQIMBAQDBwUAAwAAAAABAgMEBREVBhITITFRUlNUcpGSFjM1cSIyNEEQFGEgIzBCYqHBQGNzgbFD4fH/2gAIAQEAAT8C/hza9BimZZTKr1N5w7hbn/dRM39SwnC1X80Qv+l//Qi4TQnjsdx2T/qzkGnEOoJbS0rQf3Sf+mmSmojCnX1YqSFWrcioKNCbW2Ngvv7iBQJUkiU5Yyj+rT0DWDMRPmLdWfvYHMG4SvlN1HsoTMGXUEZxXCc/pVmMRZUulSfhxkKL5kK0GKPVGqkzan4XS+ZGr/SKMkpMz0EK7UVVKZ8NuRTmQn/IoVGTFQT0hOM+egtn9mqU5qeyaVlY5/KvUCORSqhsutn1CK5B/KIecfSjGL5dJheE8BJ5ieV7JDOEVPcOw3FN8yQ0628jHaWladaT/wBBhZL/AC9MNCT+J48X/oYKwiflG+svga0e/wC3hVCy0X8wgvjb0+wg0mXMztt2I2lZiCMFl2fHJSR/om0SMGZKCtZcQ5+mgwhcylycxrZcL7axQq0iopybliJBfbX7fx8NXbZrLeyi3r/+DBlrJ0ls9szV+2ZEZWGVpfsTobM1k23k26j+5CXHepc+zGsWn4kqL7ikTSnwUPF82hRaj/i1irs01Fh/G8ehBCfLeqUrKOFav5SJJCjJUimMJcSaVEWgxOnsQSSchRljaM1ohTGZrZrYO1JHZoEurxIrxtPLMll/SEOJW0TiflMrQ3WoTjxNJcPHM7PlMSpDcVhTrx2ILSINTjTVmiOozMs+gTqhHg4v5hRljaM1ohS2pjWUYO1OjR+OEc2FMYIml/v21bP2GDFUbgLeTJUZNKzlmtzin1OLPUsoyzM06bSs/h1iemnwlOnnVoSWsxHZfqs+y3GcWdqlH9hTaaxAR+7Ta591np/CuU1dRS2SFpRi6xRYCqfGU2tZKtVbmFVoTk2at5LqEkf2MMNZOMlq3OSbBHwedampfyyLCVjWCqRTmQnGEqJJq+5iiUhdOfWtbiV4xWZhXKWuo5LEcSjEt0ikw7thGh1aTsPGtCsJWkzDRkzNjRjlpEypMFTXX2nUn8Pw5/uKfEXOk5JBkWa20w9g6820teWQrFK2ywYMSSjVVGOrFQsjQZmKnW4sErDVlHdhIolabqNqFkTb5fy6y/g4YSsrUCYI/haL+5jBmGUenpcMv3jvxH7fb+EoySkzUdhEK9WDlqNmOZkwWn+oQ6G/Ji5W0kGfypV9wVNlm+bWQVjihUpcFS3HjSa1FZm+34TqFJaNSmSJ1H6aRApEmWr5cm391KEyK/TJZZzIyzoWX3FArCag3k3bEyU6S2v1/gVs8asSbdsMpJDKEloIiL+FMYKVFcZVoUQNBw5uK8i021Z0n9xHdS8whxv5VFmEmQ1Gbx3lklIk4SHaZRmc2tYThFLI/iQ0ZewgV1iQZIeLIr/t+GFMhtMVLFhG4s7eUYIwDfmfmleWzo/VX4VWeinRDecznoSnWYfwgqDq7Uu5MtSSF91LiV9CF91LiV9CF91LiV9CF91LiV9CDri3XVOOHatWczBVeeRWFIV0IXxUOJV0IXxUOJV0IXxUOJV0IIrc9Crcuav0MhRakmoMZyxXU/MX7MrCOM0ZpaQtxRf9CfKXPmG6abFKzERCE0mDT0JUeZCbVGJ8p2pTc1p2nYhApmDLKEEqd8bmyWgg5Q6etNn5ck/qRiu0RdP/AHrRmtj+6RgzUDctivHaZFagxhZG8uSXIoUSvXexkHGsdu220tIpdUj1HGyGNjJ0kZDDhR5SIn7WKMUNhv8AKZRSCNRn9xiM7LfQhiMbLXQhiMbLXQhiMbLXQhiMbLXQhiMbLXQhiMbLXQhiMbLXQhiMbLfQhUo7Rw3TyaSNJWkZEMFXMSp2W2JNJ2jKI209RlEbaeoyiNtPUZRG2nqMUnJ2KehTln9xFpcCOZKSRKUX3UoYQvkmluYqitVYWYYGxycqC3Vf/EnN7n+MhlMhhbTnyrKwxANUeqM60uWB5pDzZodSSkn9jFdpUaNEU+ySknaRWW5hgP58rlIYcefF5TFD9PT7mKr6g97goEsytKO50C4MlCTUthwklpOwNNLeXitJNStRC75fDudA8w6xZlm1It1hqI+8jGaaWpOsiF3y+Hc6BBGl4iUWcjFQ+hf5TDTS3V4rSTUrUQu+Xw7nQXfL4dzoLvl8O50F3y+Hc6C75fDudBd8vh3Ogu+Xw7nQNOSqc+Sk47S//RR5xVCCh7QrQov1/CZITFiuPOaEFaKahUiqM6zXjH/6JUhuKybrx2JFarDMuMbDKFabcYxgP58rlIYcefF5TFD9PT7mKr6g97husxCbSRmvMWyJtXiuxHW0GrGUmwswo8huLMyjtuLZ9hfcPWvtFcmNTFNGzb8NttpCkVKPFh5N01Y2NbmIX3D1r7QtRLmGotBrtFQ+hf5TFJkIjSycdtxbDLML6ia19ovqJrX2i+omtfaL6ia19ovqJrX2i+omtfaItRYlOYjRqxrLc5DCYv3LJ/e0xg9WUU5tbTqDNKlY1pBzCeESLUE4o9Vgq1XfqSsU/hatzIIYPU04yMu8X71WgtRDCyQrKNR/5S+P3GD1EYnRcu+sz+KzFSINPjQcb8s3imrSdukYcefF5TFD9PT7mJlKW/JW4TiSxv0FyOb5HQXI5vkdBcjm+R0FyOb5HQXI5vkdBcjm+R0FyOb5HQJoriVEeVTm/QVD6F/kMQIpzH8klRJOy20xUaaqChKlOErGOzMKdTVTkLUlwk4p2Zx4fc36OgktZCQtoztNJ2WhNAcMiPLI6CTRXGGFum6kyT+gwd+vPkMYTeQzzGKTSSqEZa8piKJVgRg0u345CbP0IQKRGiHjEWO5tK/DCpDRw0qUZE8R/D+owSlrZqORIjU27pLV+v4YcefF5TFD9PT7mJlVWxJW2TaTxf1F9ublHUX25uUdRfbm5R1F9ublHUX25uUdRfbm5R1F9ublHUJrTilEWSTn/UVD6F/kMQJRw38qlJKOyywxUakqchKVNknFO3MKdUlQULSlslYx25x4gc3COoku5eQt0ysNR22BNfcIiLIo6iTWnH2FtG0kiV+owd+vPkMYTeQzzGKXVlwGlNpbSu07c48Su8OjqPErvDo6jxK7w6OomSnJb5uunn/8FBqzNOtJce01aXC0iO+3IZS6yrGQrQYw48+LymKH6en3MVX1B73DVChKaQZku0yt+YXBB1L7hcEHUvuFwQdS+4XBB1L7hcEHUvuFwQdlfcFpJE1SE6EuWF1FQ+hf5TFJjokyybdtxbDPMLlial9wuWJqX3C5YmpfcLlial9wuWJqX3C5YmpfcItOYiuY7RKxrLM5jCbyGeYxQabHmx3Fvkq0lWZjFwwtS+4XDC1L7hcMLUvuFwwtS+4VuksxYuWYNRWHYZGMCHlGUlk/lKxRDDjz4vKYofp6fcxVfUHvcFUphFYUl2zmF5zeJd7hec3iXe4XnN4l3uF5zeJd7hec3iXe4XnN4l3uCFGp4lKPOarTFQ+if5TDTq2VYzSjSrWQvCXxDnUXhL4hzqLwl8Q51F4S+Ic6i8JfEOdReEviHOoocp96aaXXVqLF0GYwm8hnmMMS32Emll1aCPUYvKbxLvcLym8S73C8pvEu9wpE6U7UWEOPuKSZ5yMxhL6UvmIYD+fK5SGHHnxeUxQ/T0+5hSmrfiU3b+pjHY2mupDHY2mupDHY2mupDHY2mupDHY2mupDHY2mupDHY2mupDGY2m+pCofQv8hjBw0FUiyhpJOKfzDKRttnqQykbbZ6kMpG22epDKRttnqQykbbZ6kKsuOdNfxVNY2L9jIYO/XnyGMJvIZ5jGDqmiiuZQ0EeN/MK+aTn/AZGWKWgU9bH5FjGU3bilpMg6uPkl/E18p/chRPVY/v/AIGEvpS+YhgP58rlIYcefF5TFD9PT7mKr6g97gqVOMiMmFWH+pC6Z/Dq6kLpn8OrqQumfw6upC6Z/Dq6kLpn8OrqQumfw6upBJGh8kq0kqwxUPoX+Uwwy48vEaTjKF2zNyrqLtmblXUXbM3Kuou2ZuVdRdszcq6i7Zm5V1FEhyGJhqdbNKcWwYTeQzzGI0KRJSamGzWRZhdM7h1dSF0zuHV1IXTO4dXUhSadLZqLK3GTSgjzmMJfSl8xDAfz5XKQw48+LymKH6en3MVX1B73DVehJbQkzctIrPlHiCFrc7R4gha3O0eIIWtztHiCFrc7R4gha3O0X/C1udoWonJqlp0KXb/cVD6F/lMUmQiLLJx23FsMswvqJ/X2i+omtfaL6ia19ovqJrX2i+omtfaL6if19oiVFiU7k2sbGstzkMJvIZ5jFBqUeFHcQ9jWmq3MQv8Ahf7naL/hf7naL/hf7naI9YiyHktN4+MrRmGEvpS+YhgP58rlIYcefF5TFD9PT7mJdJN+Qt3KkWN9rBcat+XaLjVvy7Rcat+XaLjVvy7Rcat+XaLjVvy7Rcat+XaE0VSVEeXLN/SKh9C/yGKbD/PSciS8TNbbYPDSuJLsHhlXEl2DwyriS7B4ZVxJdg8Mq4kuwTKAqNGceN8lYhW2Yowd+vPkMYTeQzzGKVSTqDKnCdJGKdmi0eGVcSXYPDKuJLsC8G1JQpX5ksxW/IKJ6rH9/wDAwl9KXzEMB/PlcpDDjz4vKYofp6fcxLqq2JK2ybSeKL7Xuki+17pIvte6SL7Xuki+17pIvte6SL7XukhNacUoiySc4qH0L/IYp0s4MnLJSSjsssMeJXdwjqPEru4R1HiV3cI6jxK7uEdR4ld3COol15yRGW0bKCJRWWjB368+QxhN5DPMYpdWXAaUhLaVWnbnHiV3cI6jxK7uEdQvCN1SFJyCM5WaRRPVY/v/AIGEvpS+YhgP58rlIYcefF5TFD9PT7mKr6g97hulRTbSZoPOW0LpibB9xi6YmwfcLpibB9xi6ImwfcYumJsH3GLpibB9wUkkTDSWgl2CofRP8pikMNyZhNulamwxc8Pdn3GLnh7s+4xc8Pdn3GLnh7s+4xc8Pdn3GLnh7s+4xFp8eM5jtJMlWWaRhN5DPMYoFOjzI7in0mZkqzSLig7tXcYuKDu1dxi4oO7V3GI9IiMPJdbQZLTo+IYS+lL5iGA/nyuUhhx58XlMUP09PuYqvqD3uE/TlyinzZDk1pK3VGkz0CruLahKW2o0qtLOKHJefdcJ1w1WF9xXZLrC2sks02kegUd1b0PGcUalYx5/wd+uV/yf5FQ+if5TDLq2V47SjSrWQvKZv1i8pm/WLymb9YvKZv1i8pm/WLymb9Yoct9+YaXXVKTi22GMJvIZ5jEeZIjpNLLqkEefML0m8QsXpN4hYvSbxCxSahKdqLKHH1qSZ5yGEvpS+YhgP58rlIYcefF5TFD9PT7mKr6g97hpxGSR8adGsYzWtsGts9K0dQS2i0KR1BraPSpB/wDYJbZaFI6jKI209Q59cr/k/wAiofQv8piiYv54sayyw9ItZ1ti1nW2LWdbYtZ1ti1nW2KibX5F6w0W2DB368+QxhN5DPMYwWNsobuUNFuP/N7DGj62v7DGj62v7B9TGRcztfKeoUT1WP7jCX0pfMQwH8+VykMOPPi8pih+np9zFQhSHJrq0NGaTPSLul7lQu+XuVC7pe5ULvl7lQu+XuVC75e5ULul7lQbp8onEmbKtIqH0T/IYYZW+vEaTjK1C7Zm5ULtmbhQu2ZuFC7Zm4ULtmbhQu2ZuFCiQ32JhqdbNKcWwYTeQzzGI0KRJSamGzWRZhdM7h1dSF0zuHV1IXTO4dXUhSadLZqLLjjJpQR5zGEvpS+YhgP58rlIYbtKsjPF8hWpMUqotMMZJ60rDtIyF7RNpXaL2ibSu0XtE2ldovaJtK7Re0TaV2i9om0rtF7RNpXaL2ibSu0XtF2ldon1RlcZaGsY1KKzQKO+1GlZR4zIrNQvmHtq7RfMPbV2i+Ye2rtF8w9tXaL5h7au0XzD21dovmHtq7RWp7cvEQzbip+5ig1GNCjLS8o8ZSrcxC/oO2vtF/QdtfaL+g7a+0X9B219orlWZlRsjHxjtO0zMhgQyqyS8ZfAdiSElhuSypp5OMhWkg/gmWOeQk2I1KSPCTnFI7R4Sc4pHaPCTnFI7R4Sc4pHaPCTnFI7R4Sc4pHaPCTnFI7R4Sc4pHaPCTnFI7R4Sc4pHaPCTnFI7R4Sc4pHaPCTnFI7R4Sc4pHaPCTnFI7R4Sc4pHaPCTnFI7R4Sc4pHaPCTnFI7R4Sc4pHaPCTnFI7R4Sc4pHaPCTnFI7R4Sc4pHaGMEyx/wB/JtRqQkRmG4zKWmU4qE6CH//EACkQAAIBAwMCBgMBAQAAAAAAAAABESHw8TFR0UFhEHGBobHBIDCR4UD/2gAIAQEAAT8h/U3Cl6DMujVfy09ypXYup/EhF1a8kKCm+qe4jR4BMT/5kNf629kOhbon187r5Eob0aS1txWt3UJ8fYiqXYfyhWVXQ97T4H6pKL+i+zuxu6+Tdf8AI0OES2xsTye6/wBC51UzT/f4o4IWhVuCgm/SE4Y41Ej0r8lUhKndH2xeaHvfKoLTR0kL/gZEn3J8epMO6jr0/mtPafr/AJFKnd519Bxe2Hp8oYIf1Vvr3OqrG2nmWjRBBHL6e/h+90/T3oKUKrD+x9fm5pMo01RiSShKEvFbZOjq7pkWs7szoyHZNRdHX9ujFS97vZENzUtHLovcj/taoaqxUpaIP8BxeYNsq+pV/wCtJmOUmAcdBpbArrDgmrJSI8vKXVPU6xnQ/wACT+epsq+vi/C4Cqr1Kf4IyKoGgnl2+BKR00bQ/P8AXAs04ySdCpN2JqVFRVcLwleltw1HZOpCsopQOaIY2R1UcJ+jGRcg2NRc2okZvMCDrI5GjGWiSIJHR1G8bElPZQqnooFt1bPoJCCMNiaXA/lNwQl1XuvcZNrtn+voKawFdNxfpd1Y69Z+0EDKqex9+v6k5EpbfQbkaq+gy+kE79heYWtKf3QQpgirh1r/AA1o9Cd4W0npXlwThtNRx/F1K2A0vzC6xF2E2cfoa/qp/lDSFZ/P1PhiFO2xFztIgOxTmQGtZb9fIiQ2O+kSnYiZfY/g2ily/qajmIxZ1Rdfr+kMWrh5a/zwVJWqCcdqLx7llfRZX0WV9FlfQ7A5QasTEaShYC9PovT6L0+hVfsHDGpo0b8r8abgNISKcxal2RHEe94xYaKg3Tb1GNN1Zo5D1/CTQklNw29TvyJ6iw1a6oqz68i+xmuSrYSencSrAlOOiSolMTvKG5j9UmiGtw1v9IQQQQQQQZNwWAOUVktTDGDGDGDGCscTD7MVHDKcIdxtV0n/AARpP+g+fFV0ulGdFX/sM187AkkdRVMsu7LLuizblt2QkMU6plHRJZSjrS6GWZ+PkYaIxJWlUVCM/ITkFp9K+FutroJZkZkZkZkZkZkZkY8HVw1EO66kQF6OTwZNDvm2Qp9U2eTl8EfPaUxNSFxaaDQsu7LLui/blv2RLtJT9BIpiTrEhqSqifAjbXSaBrAspJNT4E1X+nk34WdwmiJ/NjGMYx1ebAoKotFPojtY/Okaeg3eQ6Lyo+7vvuPcNcMukeRTSpPdoh2rpOiI3NOMSmNwLLui/biVq0w2oZgZgZgZgZgZgZgax9OouGwmsBoGwu50CRAup0CTJnI1EM3TqanJTqFsdlpNUvW6LJsTFwVRKdEe4jyITKvQ8l4UN4/VOqE6klHUtPBZd0X7cStWiW1TMDMDMDMDMDMDMDWPo1Fw2E1ANI3F3OoaZF1OoaIM5Gohm6dDQ5KNQtjsNpqF63RdNhDsr2a6QZWZWZWTa20XRNkO5IVmjgUgSlBZd0X7ct+yIQst6Pzve97z12JJsvBZXDaoj82MYxjHVZuChdNhwBHUaQvx/wD/APWowt5mRkkxbZuU/osu6L9uX3ZCIgRQlIyQyQyQyQyQyQkMTB9XPh7pW6SGZGZGZGZGZGZGTAHdQtUWTYdjaWopZmhmhmg0iTQXRlx3LLuyy7ov24m6Q64J/QQQQQQQQukJcNh7awmSXv8AkssssssX9BSNUXjdF02O8jJLotxlfWpUCiE66o0KTn9gPffkXHcsu7LLui/blt2Q9iRKf+hcn2XJ9lyfZcn2XJ9lyfYuhqMbOfC0jUMwjDOTDOTDOTDOTDOTHOSdOsm1rKLpsh1OpNNalofZan2Wp9jR8mxqlH3LjuWXdll3Rftz2f4RAQFvR5lq5LVyWrktXJauS9ck4E1J2fgtt0ESd27zLVyWrktXJauTu3eZJHtBQumyGA09WpCO5d5ncu8zuXeY+2fEor5LjuWXdll3RftxHlWnVj3LFyWLksXJYuSxcli5LFya51NpLhsOSgzaSWhfuS3clu5LdyW7kQRugZ9y+boumxoy1vanct3JbuSbjNDs9T335Fx3LLuyy7ov24taNCbbM+zPsz7M+zPsz7M+zWPo1ZcNhcTTeYMuMuMuMuMuJdyiN0L5ui6bCH7Xs9v8MuMuHISnanU99+Rcdyy7ssu6L9uW/ZEuihurw8z78PHPM+OgCn98PPJS0Jx+emmmmmnUfA3dC6bIiqvNOqQi0vstL7LS+xmqJZsy47ll3ZZd0X7c9l+EPD1ql+CKbls9RLoQJ5ihWlpeYRK+Ru0FWMCXp4e7eD1HhQGSMkZIyRkjJEtZZHWUXTZDGRSTdTPmfM+O3GTHrRlx3LLuyy7ov25b9kRZ6Pp2ElylPzQmhhd0NAPkh7gyCaEl2Qx8dNq0l4LOklPJDMIzCMwjMIzCO2Kw0XjdFk2IoG6WzcyYyYoabc2Hvvwy47ll3ZZd0X7cp4sSVaGQRmkZBGaRmkZhGQRBAJG6ovGxJVBMDNLkzC5MwuTMLkzC5MwuSbOsm1rKLpsOp1JprUtT7LU+y1PsaLk2NUoy47ll3Y+kmTbNw18P+DmiYRTqZsZsZsZsZsZsZsZsZ0dTtSCSITS6USmTKzKzKzKzKzKzKyFle2qJYovpTXSEZCZCZCZCJ6oGHKF0Qq8KTbtS38r+iL68MHHT2k5r1TqZbyZbyZbyZbyZbyZbyZbyZbyZbyZbyZbyZbyZbyZbyZbyZbyZbyZbyZbyZbyZbyZbyZbyZbyIK4zWC36t0/gi+vCD/8QAKRABAAIBAQcEAwEBAQAAAAAAAQARITFBUWFxwfDxECCRoTCBsdFA4f/aAAgBAQABPxD8QIgAtVoJjKCJV3Ny/DKUWAbHXPB+Wcu3VfajS4Cjb+9/aEJctkcsmP8AmDMWrnYg2rGegqqNlWp/TnrKeXtIW8FPyIxGTafkFiKeA2/3KZI/BOSWs84J3lHA/ZwGdzMOxGSTetpsfn/kNO5jAAyy+mpNMqsb/oVxgeoCbF0A/vZs9rNtVcm4raS41HQeTd4Qll2roSN2DeaqMN0HH0P1H01QGP3YP2zSN6jfs/4Kiyimk1PwQM3UqMJ0AvOvfaPrEMs9T8LNjyj3ctv6GIFLyEPN/hKyMXLwhd/ISqpRZB5+RbzdCNJraM1u+9Rx/PY9dpxU6JRccdq4Pr3jXehkHYjCQgUAUHD1QGBqB8Bfx2woS+Hy4fsTmMCwa64By2nBPy3WMeRrYv8A6OwgduxKFUDK5WeMfx/ioA6YSKxclwhwR3/GTQHQcYHAgJllmQqMAtohUXdS/wAXoDaquqlCFbVloGDOrKBfU8tWonPbmK10cSKAV2TTXAv0cEZR60RsXCtRHJ3xcs8QqnAvKM8EoDqYkQShen8/GVeSbV+n6MrwGFpcym0bgCgOQRPooUvtr+Bwu/S82aZyKxUcZ4GgCBWeUMu6SFBsIHpLN0oVcs9JG9LutOMwADgooOzlBgkIiZvbKsVrJoaVyl2/ttUze6pfRQllbN+v2xxqYa98sFbRYopriEaZZRbaOKH7lT4VtJaL24lvLRKQRvGgQCiixkYxsjk1zWgxqroy2sK60VZ0/Dd7KDzB39VhJaSNT+CvxDhtPgAMqxiYAcKHV2m4bdWB/OjI74/SzPAzEr84QE330cbl0d7sq7I21o3RAIWikdpMmYztWCqV/aDimiGjU1F9YykvHN7ADgOxNp0m5zhBdrscvwJHdv60H0EE4Ag0oAfz8TzG6lFarG5CFgSq2C+xP1AmF0lFaVsrSaR4myrcDK8phG8L292+GdpTZ/dopERLruMaeYc4IBGxyJtlZfBWlkuxfkRY0zcavMHIKuNNF9FgLTUVFC9hhV2BB5XuEDmFfbSpUqVqfrA7zBUPyYNIPYmTJhygcq8ygfuVrAHWZ04D9e1oDKcEbFc/AxEkOsKALrLDaMhpeX+VhoS5yi0A3trBO7Z9vYplcqOcUaNRxcCr9kBVXFkaFdR7ETpbHYdXlhOF7pXuctQcr8U/RCLSMuCujjIW121FRetI2rOjo6MZYUDiDf0SnBVPXABen/sfDGokn1+DDDDDDDAVxGpOiiQXqEamJ2UNAntGGGGDnjHdKC/DGgWGGI2IFH1MUcqrazpwp+4e+qlNEQ/QB+/UhJQq6EqzianEmwQX3Nf4UlXQnRKOGbNt8Cjbn79h27sb5GQqDAOkdEiWRMgDVWGlsbCg1ajFjVapXBV1fMl+/VnYal/v0GcYadSiiM7lugJhEYQatfgiyyCKSCDtqTgDomBrDbdIdNdXBwnBPQsKiLVthxWg5y5bStssfhRxqwElOADLNE4cjK8GvsO3RlV25LG4bKrAP8iYI8oKKLYKQrbVpjE86gwVtFVSvhgZLSQU1Wf1H/2UQtVNKck/s7lug9ixtWmMTyKeZTzKeRTzKeRQmgTKVENf2RKhQG1WhMt+aFdEO1ohYyWa13W4maZWRshWqzppN8u/nznixyObLGWUYW6ORfzBotLFaatbbvlUFRMAEtV2u909bow37hhwDZy/BBgggghhcDppqUzOIuLoAmGmI1qASkF7YVLCSkl3j0NLWoFCGrIBTCpp3KncaEWGL5+nHvm5AkjoqLrdu2V/GuoYmjvCltv0D0OEo1ltco1vecYSQ626y8EMjweHsujDfuCHAdnP8CGGGGGGFYOm2hbMYi4ugAYa4jWoBKSVthUsJKQVWPQ1tagWJbogFcK2vUudxoRY4vl6ce2bks53vBpTHL2e+66aLnyQbCGCrrc20pwDcay7/gPkdybT1ujC+Uk8/TjC0Ls4zyb/ACeTf5PJv8nk3+Tzb/JQX9r/ACHqhMrbAfRO5bovYsLVhjM8inmU8ynkU8ynkUZoE2lZHT9E7ZuSwhrY5X9WefTz6eTTyaHqKkYsCO8a+YxW2Tug518PW6NhyMi8yBQAUHv888888RkQlallf3O9boBARGEOpfvKaaaaCPOzqsMtftnfNyWIA/FFW1wD2CCCBe+VQuyfr2pXboweg0Ah43n8GGGGGGGCkFuyrPQio5FsCis4Tv3rO/es796zv3rO/esY+qNk7Cm/Sz2zchG5aCybL5SvVS2WrOmIRKERBpreY4HKirrtx9zhK7dGTQLpkGeGsByPvZMmTJkiDOYlyFE+Z3LdAasg4NGrlPdqlSpUpXDXEhemYLIGHg+jCjSdYKDWU2JFtXgPRIkeJMGCrZbae1K7dGVSLCwuCrAMeEx4THhMeEx4TDV0MW0KLU2Es5M7luiFEoyLTGJ4tHiUeJR4lHiUeLQqQCeNRDW+J6MDZcLThbzaM8Njw2PDYd4xLspcvJ7Urt0YmKwmsA15J5DHkMeQx5DHkMeQx5DAgSml80+ii74Hhw0qyedT5VPlU+VT5VNkkApZBV2rX0k9s3IRky7bC103zyqfKpRYFAi6XXxho/bCV26Mc7oQuBznjO3us7e6zt7rO3us7e6zt7rO3usrA020refpRbYjiFDXE7l6zuXrO5es7l6zuXrLlsh3IcW8PST2zclvb8RGhWI7l6zuXrFowEtAJv4x37eErt0an6kkymraoO+dwdZ3D1ncHWdgdZ3B1ncPWEPTRW6CpO9boqFNSrDGTM7C6zsLrOwus7C6zsLrOwusROaYGyOi8D0YYFxNNqqHevsIECFCMQIUrRacL7krt0bkzSkhNjI/ziKFMFwYmkEj/Y7ppLp2o3tQqsGl/LHTqw20YEdJ3zenet0PDKCU06k8Hng88Hng88Hng8HNjWCgD9vowxp+uGgX8BPFP8nin+TxT/Jj8FGF2fg9qV26N9ZKmkho7hxg4YyIdS0JbFn9jauuFD1jIsGlmvubVPUM/se9P7GYFIJkcp3LdGbWsw0cfd7/AP8A/wC0GLBduzSvSz3zcgymVAWtj8vW+9JpVdXXb3Kkrt0YlRkgBQ2vCds9Z3n1nbfWd5dZ3l1nfPWdt9YCkwaAJx9OAiWigNGrl93ZMmTJsMMteGYLKGHgztm5KFp3AoNZTYnsYMACwpiwVbG9U9UrqvUhaZx5kRpikulMObG72VX3+GCCCCCCCBi3ZF7qwrcZ216a5PwEkkkkkkuIktIwaG4rbFFYJUoGTk+0AAAAx7RpWIC3d1mqrfeEWCkYxjyIt6/5+0RMiNImRBIrVF0f3VD4H/S0aNGjRo0aNEjRo0aNGjRo0aNGjRo71l0n3XD5JuX/AD9qq5VbVcqqz//+AAMA/9k=;" parent="1" vertex="1">
          <mxGeometry x="-910" y="511" width="84" height="84" as="geometry" />
        </mxCell>
        <mxCell id="bmdBSv6gznFxY5QFB66U-2" value="&lt;font style=&quot;font-size: 18px;&quot;&gt;&lt;b&gt;MNRT DATA CENTER&lt;br&gt;&lt;/b&gt;&lt;/font&gt;" style="text;html=1;align=center;verticalAlign=middle;whiteSpace=wrap;rounded=0;" parent="1" vertex="1">
          <mxGeometry x="-966.5" y="490" width="207" height="30" as="geometry" />
        </mxCell>
        <mxCell id="bmdBSv6gznFxY5QFB66U-3" value="" style="shape=image;imageAspect=0;aspect=fixed;verticalLabelPosition=bottom;verticalAlign=top;image=data:image/jpeg,/9j/4AAQSkZJRgABAQAAAQABAAD/2wBDAAYEBQYFBAYGBQYHBwYIChAKCgkJChQODwwQFxQYGBcUFhYaHSUfGhsjHBYWICwgIyYnKSopGR8tMC0oMCUoKSj/2wBDAQcHBwoIChMKChMoGhYaKCgoKCgoKCgoKCgoKCgoKCgoKCgoKCgoKCgoKCgoKCgoKCgoKCgoKCgoKCgoKCgoKCj/wgARCADgAOADASIAAhEBAxEB/8QAGgABAQADAQEAAAAAAAAAAAAAAAUBAwQCBv/EABcBAQEBAQAAAAAAAAAAAAAAAAACAQP/2gAMAwEAAhADEAAAAvqgAAAAAAAAAAAAAAAAAAAAAAAAAAAAAAACcmjrmbanu2TdeKybRyshQAAAAAAAA5mcnVq76gJ6AaOCtybz6tcvo12bZ3OWWndNg0AAAABK751c64noAAAAxkRrHNqrn3iegAAAGJOaVc+Ps2JpjMXcspWdyomMU0wU0wU8xbTccFBmyKvmbU1hPQAACTWk1q5hPRJrSt56+jWvnVSk9KvNxmbvfM3MVpVXKCeiTWlVzqiegAAEexy8tcqjGZ6o1mTXPGdfRXPwqp6SlXmZxt3vc4rMmtlDE9Mx9nTXLrE9QAAGjeZJzVVHBorR2ejOzhkYZGGRjfy2cqVisbo3k2DQAAAAEmtI3nr6deb51UpHSrzcbc27OZuYrSK+UE9AAAAAAAAAHP0Ttjp6J1FoZQAAAAAAAADx7MlKrYk8P0nmo+d76folYrJvXsMsGgAAAAAAAAAAAAAAAAAAAAAAAAAAAAAAf//aAAwDAQACAAMAAAAhAAAAAAAAAAAAAAAAAAAAAAAAAAAAAAAAHZvHAAAAAAAAAAwAATsEJAAAAAAAAAAAAQ8AAAAAYiVBPPPpzUAAAAJAThBBBhABAAAAjIEsAFIIEVAAAAABiKOOOaBAAAAAAASpDBhgAAAAAAAAAARAAAAAAAAAAABDhBThAAAAAAAAAAAAAAAAAAAAAAAAAAAAAAAA/9oADAMBAAIAAwAAABDzzzzzzzzzzzzzzzzzzzzzzzzzzzzzzzwIAq7zzzzzzzzzcnzxfGULzzzzzxrzzzzzyDzzzzwTMUQMMMttjzzzjzxZHANADzBTzzwDxR/0Y+Dw7zzzzNjIPOMNoiPzzzzzxPAIOAHzzzzzzzzzwWDzzzzzzzzzysPGl+Xzzzzzzzzzzzzzzzzzzzzzzzzzzzzzzzz/xAA0EQABAwEEBggFBQAAAAAAAAABAAIDERIhMZEEFCAyYdEQEzBRUoGhwSJQcbHwM0FD4fH/2gAIAQIBAT8A+QMjdIaNC6uNu86/h+BdXE7ddmP9T43Rmjuya0ucGjFSvDR1TMPv0xSfxv3T6cUYo2b7skImPujdfxuRBBoduBpbWSmAO2+ssYf+4uPttACFocRVxwTpHv3ioo7damgC6uLxeisReP0ViLx+isReP0UsYZShqCmSOYatNEQJmlwFHDHns6VdKR+YdGj0NppNKj3CdbMQiqKDitWd3jNNgINajNGMkEfDmtIp8LQa0HRov6oH12XN65oc3EY8+jRzZtOGIHuE58ghEtvyuWty96bpMzjQH7IzTgE2hd9FpBrZccSPc9DR1LS92Jw57LSWmoWsk7wB8lC604mgApeqwcMnc1WDhk7mqwcMnc1WDhk7mpnlrgaAily1gjdAHki4uNTjtwX2m949wnCQwiKgu4has/hmOabo7wakA+Y5owkggNGf9rSLrLe4e/ZwttPAopmWZHCnZhay/hkFDpro3VIGQCm0x0jqgDILWX8Mgia/If/EADcRAAEDAgIECgoDAQAAAAAAAAECAxEABBIhEzFR0QUQIDJBYWKRkqEUFTA0UlNxscHhUHKBM//aAAgBAwEBPwD+AefQwnE4YoXFw5/zbgdox5Z0X7hGa25HZM+RimX0PiUH2TjiW0latQq2ZKz6Q9zjqHwjft47lkg6drnjzGw/ik3L72bTcDarLy10bl5nN9GW1OflrpKgsBSTIPLvXErwszrUJHVr5bMW75ZHNVmPyB9+UoqunC2kwhOsjpOzfTdu01zEgVcvlkDCJJMCtPcTGjHi/Vaa5+WPF+q01z8seL9Vprn5Y8X6q2fLwOIQQYNOsNvCHBNIKrVwNqMoVqnoOzdyeDvd0nbP3PFehQwLAkJVJj6GkBpNybqFyeiDFenp+BXhNOXiVpKQFD/KS+EqCpWY6v1VkFHGsiMSpE/QcXCXu6j0iI+sjktrFo4W15JUZB6M9Y3cV+nHo2zqKs+40hphV2bfQmB0ya9W23w+Z30vg+1QkqKPvSbazUoJCDn/AGqwGEuIGoKy7hxOKF24GkZpSZUejLUPyeStCVjCoSKFghPMUpI6jV02G20plRVOWec/7WC72q707qwXna707qwXna707qwXna707qtGw42pMqCpzzzn7aqNglWS1KUOs0hCUJwpEDl30p0a4ySqT3GkFhN0brErPowndXrBnr8J3Uu+aUkhJIP9TupN0kKBLijHZ1+VWMq0i4yUqR3D2d24G2VqJjI1aOh1lKgZyHf7MiRFer2tp8R31fcDNXbJaxET1k/mrHgZq0ZDWImOsivQGtp8R30kQI/gf//EADkQAAEDAQMHCQYHAQAAAAAAAAIBAwQABRETEhQVIVFUcSAiMDEyQEFTYRAjNWSR0SQzNEJSYKGx/9oACAEBAAE/Av72TrYdoxTitC62XZMV4L3mXaQtnhMDiu+lJEmStcp/DH+I0Njxk68suK0VjxV6soeC0sKVG1xJCkn8SqNaXPwpY4Tn+d2tCSbr2aRe2vaLZUKG3FC4UvLxLkyorckMlxOC7KhvORJCRZK3ivYL2HIab7bgDxWgfac7DgFwXuNoSM2jEf7upONWVGwWMs/zXNary7SjZzHVE7aaxptqdMFEePBbT6rTdkRhTnIRcVpyyIxdlCBfRaXPLO1348f/AFKjPhJaQ211dPaPv7QjR/2pzl6V4dGzRdD9O5qJNlJ0r0llr8xwRqI4Mi2XDBbxQNS9LaTeLCdT0vqypIuxGxUky0S5U6MlQUVVW5Eo5D89xQicxlOtymLLYDWaK4W0qbabb/LAR4J7cpNqVlJtSspNqVlJtSspNqVlJtSspNqVlJtTkP2Ww5rBFbLaNDIkQDQJfPZXqOhVCFFRb0XobTMpEgITS9es1phoWW0BtLhTkOgU21HGTcIQBOpKOy2G0vN8xT1WhslokvF5xU41odvzXPrWh2/Nc+taHb81z61odvzXPrWh2/Nc+taHb81z602BQrUbZBwibcTqXkPNC82oGl4rVmGUeScJ1erWHQ2R72VKfX+VycmJ8blcPtVtsuG62aCptp4JVitONR1xNV66k5E0pAimbAhL430jk3NyVWhxb9SelQjlES5yAinhdUv43F4ffk2umFKivp1oVy9DYOoZAeInyZEeSzNKRFRCy01otY9o+SNY9o+SNY9o+SNY9o+SNY9o+SNY9o+SNY9o+SNY9o+SNR2JL00ZEpEHITUicm3tYRw8SPoRXMrYK/U2/wD95LwnNtNxnEIAbTworLEUvKW4nFaSyUVL0lOXVoj5l2tEfMu1oj5l2tEfMu1oj5l2tEfMu0yhwrSbZxCMHE8eSS57bAomttj/AL0NoRUlMZPUaaxWoU5W1zebzHU8V8a6/bE+NyuH2q3G3CdbLJImtg1YgOBGXERURV5qLyJjjzYpm7WIvGkkS83Ilje8v1DfUN6S4SpIYw0231M+NxeH39vVU2cri5vC57i+KeFWfFSKzk9ZrrJeikxmpI3Ojf61mMqP+lkc3YVX2psbqIs7F/EoGH6VIZkx5xSIwI4hprSs6tHdRrOrR3Uazq0d1Ss6tHdUrOrR3VKzq0d1Gs6tHdRrOrR3UajsyZE4JEkEbyE1JUtZ2L+HQMP1q+1NjdZhKkfqpHN2DUaK1GG5obvXp3sWZaTjCOq2DaeFLZhD1yzStFnvblaLPenK0We9OVos96crRZ705Wiz3pytFnvTlM4sO0W2FdVwHE8e5xPjcrh9qt1DxW1VCVn0qw0cSMuJfk382/kTX3GBFWmlcvpJj6xiPNiykW7JqFJeeIkdYVtE8al/G4vD79zfCRFtA5DLWKJpWfytyKs/l7kVaQl7kVaQl7kVaQl7kVaQl7kVaQl7kVZ/L3IqYCRKtAJDzWEIJ3ec4TUR0w7SJUFwnojZn2lTvdsSGwjG0q8801JVjSGzjA0i88E1p3d0SJskAsklTUtZjN31azGbvq1mM3fVp8DizEWUSnemo6YA5cy+Kqt3JrOsxm76tZjN31azGbvq0yJC0KGWUSJrXb3cwE0uMUVPWgAQS4ERE9P79//EACoQAAECBAQFBQEBAAAAAAAAAAEAESExQfAgUWHRMEBx4fEQgZGhsWDB/9oACAEBAAE/If7v6zwIr8OHmXgpLSBRaEvgr+HshMGtuqDALgSZbmZCPKgh8ipURJmTOEzifcSokH+ehpimiEeY5onkQdHOaVzjafTGw2uVBRzQDEAMmJFz2UC6w3EJI4JvIT8YpioOR4412B30PEIcMZIsInyJX/qIEAiR4sxzIlQak/B34oS4iGuoio1HoYw4YS0QSaJyOANXos3TJl+KB6EgTLLyi8ovKLyi8ovKLyi8ogQZF/QgEEGSzIMGTzUIOY6oIYBwRXgt+pRQJj4cEBQ4s5brWLjKByRIjGc5znOjKAF67Ya8XtEwajgjN5LrS2xaDR5jSKD4kXz0GB16HoKHpDEQPsmIsUpR3Fpb8AyUU52/bCIxsKefXn8X/wD/APn0NzsYYTTlfz/UJcBgVoG2f7hNF7B8d02k5sISKlUFXCrhVgqwVYKsFB+9hyz2w5hUTbP84JV9ASskBEoECAcFxg0y7wxzFF2bMAYC+EpiIGRooBbUjNAcBEIj4BEgHJYLJIzK9yG/sSeE2ZkqCfRjQtuBLrBHNDYXMzpoUIlLZW3dX3dX/dX/AHV/3V93V93V93QAA0Ctuho8yczp+jrBVWKltGZqjx48VNct0IcdmSgQOCDH3d3dHypptuU1CaEdaYMMlO2AlFJiBRGjCp0xmgsccFXlJQwDECYtkSzN87K7OysTsrE7KxOysTsrE7K5OygqGAMzb8uZpnYLI5zuiebfaNAJls0Jy8JpGSVYndXJ3Vyd0PIxAOjwUgC8Sd1cndXJ3UBZDM3L6DiB1oOoG/vv/8QAKhABAAIBAQUIAwEBAAAAAAAAAQARITFBUWFx8RAgMIGRobHBQNHw4WD/2gAIAQEAAT8Q/wC4uaznFkc/kthwcdnwjLEx2D+LprGTu6tXimrwPabWUmyNyIPVYRrXVp+BKA9xD7GbU3a4m4uz4gN3IDp+C6X6cYgCIjon4rbNvsbUvY1q+RlwdALHz7eRw7pdkGEpt4/UWFq9qbE+3OO+cK4oe7DiBoIezBvs2+LrAejS1tMH78ozE7bgFst528XhL7t5hbFP4Dmh41UGDxlSKVNc8UOEp2o1RfsmEk0e0+qVs3wa+YtPc5TRh5OaDfDxkeyHZkLq/IPOGnhkwCikSxhBoIvNG6tThSKzYWJtPFDrcR2+UPvWIxij8+KvzIrM6CvSvONbVi6yCnEB8MmRK1A3sX5egp/rdnlM3nkTbvq/m48q6UpJOKdhNhzM6EnQk6EnQk6EnQk6EnQkFshwewmRRSO0l8Z5EU76v4qOYnRXzW3lrzh5iLWB0TwWsGnPGnkF1txB+UAbXevF7hyLtRasuf0l8oaoD3hResdGdJTpKdJTpKdJTpKOIy3FNZc793cJ+CkTTcnEjyjfnzR5N1sz4C0XNr7tsu49A+XcZ7L8Q28dhzMb/qXm6XmrPrj0ly4Rbo6FVK2RpCBoWmXncCSw5Bd1T3747rSFG/XGvR9cMh3xaOEZuOPOz7TPcJOBrI0H0TL2Z3V51edXnV51fscpASWVpPt7pZGRJrg+xmA5eAODrcRO31enubIW8IOlay/myDrBrAe7MgBCyPvP5f6n8v8AU/t/qV/p9z+3+pX+n3HjpB3asv5t7oYi9zQ3jjh64aeBdgTvH6mA7KPL0rpfHRhkSFiNj2+y/EXQrAVN9DyzD7dQM7th3GqJGFNa6wgAqiqc6tkKwhIWXpVz3b47TkQFqtBFNtvTvamjz0IvUd8K5HhXpgYsPwYVhrOiPk9oBEp5ntCeQIFNiqh3gP5VBvNyLGU856hPUZ6jPUZ6hPUJ6pL92IWuk0t3oiKppDiXccAa43HtFQMm9E/B7S7UdbL8Xx6l002iZPH6Rqc60j1WElDIjY+86y/udZf3Osv7nWX9zrL+51l/csRRRa6cnH7Tl3F8b2X4hZ6sFqOOvKvOX+JJGm3rs/2XL7GhhR01rCCiaghsa40hNAI4V6ZnvXxGz8JlxWrNBVGdjOdsNo7cigIoA3HfEEGGGOHgLau0lU52s1+JUrsFM0qwPKEOpUULnNdlSvx9b3R9dKdpky7iLppTpcuTeRx+Kxj6AC7jDU6RDoEOgQrbaQDw26RxtgSBjTFZewB0CHQIJHETSjVqH4OyJjt1zGqvqUPkwqH6FB5HZ5Tyh/3X//4AAwD/2Q==;" parent="1" vertex="1">
          <mxGeometry x="-546" y="479" width="184" height="184" as="geometry" />
        </mxCell>
        <mxCell id="1rtqqvMdxupV1CVTJnT_-20" value="" style="endArrow=classic;startArrow=classic;html=1;rounded=0;shadow=0;strokeColor=default;strokeWidth=2;align=center;verticalAlign=middle;fontFamily=Helvetica;fontSize=11;fontColor=default;labelBackgroundColor=default;fillColor=#515151;exitX=0;exitY=0.5;exitDx=0;exitDy=0;entryX=0.988;entryY=0.595;entryDx=0;entryDy=0;entryPerimeter=0;" parent="1" target="bmdBSv6gznFxY5QFB66U-1" edge="1">
          <mxGeometry width="50" height="50" relative="1" as="geometry">
            <mxPoint x="-520" y="561" as="sourcePoint" />
            <mxPoint x="-760" y="561" as="targetPoint" />
            <Array as="points" />
          </mxGeometry>
        </mxCell>
        <mxCell id="bmdBSv6gznFxY5QFB66U-5" value="&lt;font style=&quot;font-size: 18px;&quot;&gt;&lt;b&gt;Disaster Recovery Site&lt;br&gt;&lt;/b&gt;&lt;/font&gt;" style="text;html=1;align=center;verticalAlign=middle;whiteSpace=wrap;rounded=0;" parent="1" vertex="1">
          <mxGeometry x="-557.5" y="481" width="207" height="30" as="geometry" />
        </mxCell>
        <mxCell id="2lmS-5YsYihyagzqlJ5x-20" value="&lt;div&gt;&lt;b&gt;MPLS&lt;br&gt;&lt;/b&gt;&lt;/div&gt;&lt;div&gt;&lt;b&gt;VPN&lt;/b&gt;&lt;/div&gt;" style="ellipse;shape=cloud;whiteSpace=wrap;html=1;align=center;fillColor=#61D5FF;" parent="1" vertex="1">
          <mxGeometry x="-694" y="532" width="66" height="51" as="geometry" />
        </mxCell>
        <mxCell id="XD-aGYf0FBWwHXYNJBPc-1" value="&lt;h1 align=&quot;center&quot; style=&quot;margin-top: 0px;&quot;&gt;TRACKING TECHNOLOGIES&lt;br&gt;&lt;/h1&gt;" style="text;html=1;whiteSpace=wrap;overflow=hidden;rounded=0; align=center;align=right;" parent="1" vertex="1">
          <mxGeometry x="-966.5" y="1107" width="247.5" height="83" as="geometry" />
        </mxCell>
        <mxCell id="XD-aGYf0FBWwHXYNJBPc-2" value="&lt;font style=&quot;font-size: 18px;&quot;&gt;&lt;b&gt;Vehicles &lt;/b&gt;&lt;/font&gt;" style="text;html=1;align=center;verticalAlign=middle;whiteSpace=wrap;rounded=0;fontFamily=Helvetica;fontSize=12;fontColor=default;" parent="1" vertex="1">
          <mxGeometry x="-1281" y="1304" width="207" height="30" as="geometry" />
        </mxCell>
        <mxCell id="XD-aGYf0FBWwHXYNJBPc-3" value="&lt;font style=&quot;font-size: 18px;&quot;&gt;&lt;b&gt;Wildlife &lt;/b&gt;&lt;/font&gt;" style="text;html=1;align=center;verticalAlign=middle;whiteSpace=wrap;rounded=0;fontFamily=Helvetica;fontSize=12;fontColor=default;" parent="1" vertex="1">
          <mxGeometry x="-1062" y="1304" width="207" height="30" as="geometry" />
        </mxCell>
        <mxCell id="XD-aGYf0FBWwHXYNJBPc-4" value="&lt;font style=&quot;font-size: 18px;&quot;&gt;&lt;b&gt;Fuel Management &lt;/b&gt;&lt;/font&gt;" style="text;html=1;align=center;verticalAlign=middle;whiteSpace=wrap;rounded=0;fontFamily=Helvetica;fontSize=12;fontColor=default;" parent="1" vertex="1">
          <mxGeometry x="-821.5" y="1304" width="207" height="30" as="geometry" />
        </mxCell>
        <mxCell id="XD-aGYf0FBWwHXYNJBPc-5" value="&lt;font style=&quot;font-size: 18px;&quot;&gt;&lt;b&gt;Other...&lt;/b&gt;&lt;/font&gt;" style="text;html=1;align=center;verticalAlign=middle;whiteSpace=wrap;rounded=0;fontFamily=Helvetica;fontSize=12;fontColor=default;" parent="1" vertex="1">
          <mxGeometry x="-584.5" y="1304" width="207" height="30" as="geometry" />
        </mxCell>
        <mxCell id="XD-aGYf0FBWwHXYNJBPc-6" value="&lt;font style=&quot;font-size: 18px;&quot;&gt;n, n(n+1),...n(n+12) &lt;/font&gt;" style="text;html=1;align=center;verticalAlign=middle;whiteSpace=wrap;rounded=0;fontFamily=Helvetica;fontSize=12;fontColor=default;" parent="1" vertex="1">
          <mxGeometry x="-1362" y="1020.5" width="207" height="30" as="geometry" />
        </mxCell>
        <mxCell id="XD-aGYf0FBWwHXYNJBPc-7" value="&lt;font style=&quot;font-size: 18px;&quot;&gt;n, n(n+1),... &lt;/font&gt;" style="text;html=1;align=center;verticalAlign=middle;whiteSpace=wrap;rounded=0;fontFamily=Helvetica;fontSize=12;fontColor=default;" parent="1" vertex="1">
          <mxGeometry x="-546" y="1021" width="207" height="30" as="geometry" />
        </mxCell>
        <mxCell id="XD-aGYf0FBWwHXYNJBPc-8" value="&lt;font style=&quot;font-size: 18px;&quot;&gt;(Radio, LoRaWAN) &lt;/font&gt;" style="text;html=1;align=center;verticalAlign=middle;whiteSpace=wrap;rounded=0;fontFamily=Helvetica;fontSize=12;fontColor=default;" parent="1" vertex="1">
          <mxGeometry x="-943.5" y="1166" width="207" height="30" as="geometry" />
        </mxCell>
        <mxCell id="XD-aGYf0FBWwHXYNJBPc-9" value="&lt;font color=&quot;#ff3333&quot; style=&quot;font-size: 18px;&quot;&gt;&lt;b&gt;IoTs&lt;/b&gt;&lt;/font&gt;&lt;font style=&quot;font-size: 18px;&quot;&gt;&lt;b&gt; &lt;/b&gt;&lt;/font&gt;" style="text;html=1;align=center;verticalAlign=middle;whiteSpace=wrap;rounded=0;fontFamily=Helvetica;fontSize=12;fontColor=default;" parent="1" vertex="1">
          <mxGeometry x="-943.5" y="1255" width="207" height="30" as="geometry" />
        </mxCell>
        <mxCell id="XD-aGYf0FBWwHXYNJBPc-13" value="" style="endArrow=classic;startArrow=classic;html=1;rounded=0;exitX=0.5;exitY=0;exitDx=0;exitDy=0;entryX=0.5;entryY=1;entryDx=0;entryDy=0;strokeWidth=2;" parent="1" source="XD-aGYf0FBWwHXYNJBPc-9" edge="1">
          <mxGeometry width="50" height="50" relative="1" as="geometry">
            <mxPoint x="-1030" y="1175" as="sourcePoint" />
            <mxPoint x="-840" y="1193" as="targetPoint" />
          </mxGeometry>
        </mxCell>
        <mxCell id="XD-aGYf0FBWwHXYNJBPc-14" value="" style="endArrow=classic;html=1;rounded=0;shadow=0;strokeColor=default;strokeWidth=2;align=center;verticalAlign=middle;fontFamily=Helvetica;fontSize=11;fontColor=default;labelBackgroundColor=default;fillColor=#515151;entryX=0.435;entryY=1.017;entryDx=0;entryDy=0;entryPerimeter=0;" parent="1" edge="1">
          <mxGeometry width="50" height="50" relative="1" as="geometry">
            <mxPoint x="-960" y="1165" as="sourcePoint" />
            <mxPoint x="-1271.955" y="1050.01" as="targetPoint" />
            <Array as="points">
              <mxPoint x="-1270" y="1165" />
            </Array>
          </mxGeometry>
        </mxCell>
        <mxCell id="XD-aGYf0FBWwHXYNJBPc-16" value="" style="endArrow=classic;html=1;rounded=0;shadow=0;strokeColor=default;strokeWidth=2;align=center;verticalAlign=middle;fontFamily=Helvetica;fontSize=11;fontColor=default;labelBackgroundColor=default;fillColor=#515151;entryX=0.5;entryY=1;entryDx=0;entryDy=0;" parent="1" edge="1">
          <mxGeometry width="50" height="50" relative="1" as="geometry">
            <mxPoint x="-714" y="1163" as="sourcePoint" />
            <mxPoint x="-436.5" y="1055" as="targetPoint" />
            <Array as="points">
              <mxPoint x="-434" y="1163" />
            </Array>
          </mxGeometry>
        </mxCell>
        <mxCell id="XD-aGYf0FBWwHXYNJBPc-17" value="" style="endArrow=classic;html=1;rounded=0;shadow=0;strokeColor=default;strokeWidth=2;align=center;verticalAlign=middle;fontFamily=Helvetica;fontSize=11;fontColor=default;labelBackgroundColor=default;fillColor=#515151;entryX=0.5;entryY=1;entryDx=0;entryDy=0;" parent="1" edge="1">
          <mxGeometry width="50" height="50" relative="1" as="geometry">
            <mxPoint x="-437.5" y="1003.5" as="sourcePoint" />
            <mxPoint x="-436.5" y="862.5" as="targetPoint" />
          </mxGeometry>
        </mxCell>
      </root>
    </mxGraphModel>
  </diagram>
</mxfile>
